#define _width 16
#define _height 16
static char _bits[] = {
 0xfc,0x3f,0x82,0x41,0x01,0x80,0x01,0x80,0x01,0x80,0x01,0x80,0x01,0x80,0x83,
 0xc1,0x83,0xc1,0x01,0x80,0x01,0x80,0x01,0x80,0x01,0x80,0x01,0x80,0x82,0x41,
 0xfc,0x3f };
