#define _width 128
#define _height 48
static char _bits[] = {
 0x10,0x0f,0xf3,0xbc,0x07,0x00,0x00,0x00,0x00,0x00,0x00,0x00,0x00,0x00,0x00,
 0x00,0x28,0x91,0x14,0x85,0x00,0x00,0x00,0x00,0x00,0x00,0x00,0x00,0x00,0x00,
 0x00,0x00,0x28,0x51,0x10,0xbd,0x07,0x00,0x00,0x00,0x00,0x00,0x00,0x00,0x00,
 0x00,0x00,0x00,0x44,0x4f,0x10,0x85,0x00,0x00,0x00,0x00,0x00,0x00,0x00,0x00,
 0x00,0x00,0x00,0x00,0x7c,0x91,0x14,0x85,0x00,0x00,0x00,0x00,0x00,0x00,0x00,
 0x00,0x00,0x00,0x00,0x00,0x44,0x0f,0xf3,0xbc,0x00,0x00,0x00,0x00,0x00,0x00,
 0x00,0x00,0x00,0x00,0x00,0x00,0x01,0x00,0x00,0x00,0x00,0x00,0x00,0x00,0x00,
 0x00,0xc0,0xe3,0x39,0x3c,0x00,0x00,0x00,0x00,0x00,0x00,0x00,0x00,0x00,0x00,
 0x00,0x00,0x20,0x24,0x21,0x02,0x00,0x00,0x00,0x00,0x00,0x00,0x00,0x00,0x00,
 0x00,0x00,0x00,0x00,0x94,0x22,0x02,0x00,0x00,0x00,0x00,0x00,0x00,0x00,0x00,
 0x00,0x00,0x00,0x00,0x00,0x52,0x22,0x3c,0x00,0x00,0x00,0x00,0x00,0x00,0x00,
 0x00,0x00,0x00,0x00,0x00,0x00,0x51,0x22,0x42,0x00,0x00,0x00,0x00,0x00,0x00,
 0x00,0x00,0x00,0x00,0x00,0x00,0x80,0x30,0x22,0x42,0x00,0x00,0x00,0x00,0x00,
 0x00,0x00,0x00,0x00,0x00,0x00,0x00,0x40,0x20,0x21,0x42,0x00,0x00,0x00,0x00,
 0x00,0x00,0x00,0x00,0x00,0x00,0x00,0x00,0xe0,0xe7,0xf9,0x3c,0x00,0x00,0x00,
 0x00,0x00,0x00,0x00,0x00,0x00,0x00,0x00,0x00,0x00,0x00,0x00,0x00,0x00,0x00,
 0x00,0x00,0x00,0x00,0x00,0x00,0x00,0x00,0x00,0x00,0x00,0x00,0x00,0x00,0x00,
 0x00,0x00,0x00,0x00,0x00,0x00,0x00,0x00,0x00,0x00,0x00,0x00,0x00,0x00,0x00,
 0x00,0x00,0x00,0x00,0x00,0x00,0x00,0x00,0x00,0x00,0x10,0x00,0x00,0x00,0x00,
 0x00,0x00,0x00,0x00,0x00,0x00,0x00,0x00,0x00,0x00,0x00,0x00,0x00,0x00,0x00,
 0x00,0x00,0x00,0x00,0x00,0x00,0x00,0x00,0x00,0x00,0x00,0x00,0x50,0x64,0xee,
 0x49,0xd1,0x8b,0xce,0x00,0x00,0x00,0x00,0x00,0x00,0x00,0x00,0x00,0xd0,0x94,
 0x24,0x4a,0x5b,0x98,0x24,0x01,0x00,0x00,0x00,0x00,0x00,0x00,0x00,0x00,0x50,
 0x35,0x24,0x4a,0xd5,0xab,0x64,0x00,0x00,0x00,0x00,0x00,0x00,0x00,0x00,0x00,
 0x50,0xc6,0xe4,0x49,0x51,0xc8,0x84,0x01,0x00,0x00,0x00,0x00,0x00,0x00,0x00,
 0x00,0x50,0x94,0x24,0x49,0x51,0x88,0x24,0x01,0x00,0x00,0x00,0x00,0x00,0x00,
 0x00,0x00,0x50,0x64,0x24,0x72,0xd1,0x8b,0xc4,0x00,0x00,0x00,0x00,0x00,0x00,
 0x00,0x00,0x00,0x00,0x00,0x00,0x00,0x00,0x00,0x00,0x00,0x00,0x00,0x00,0x00,
 0x00,0x00,0x00,0x00,0x00,0x00,0x00,0x00,0x00,0x00,0x00,0x00,0x00,0x00,0x00,
 0x00,0x00,0x00,0x00,0x00,0x00,0x00,0x00,0x00,0x00,0x00,0x00,0x00,0x00,0x00,
 0x00,0x00,0x00,0x00,0x00,0x00,0x00,0x00,0x00,0x00,0x00,0x00,0x00,0x00,0x00,
 0x00,0x00,0x00,0x00,0x00,0x00,0x00,0x00,0x00,0x00,0x00,0x00,0x00,0x00,0x00,
 0x00,0x00,0x00,0x00,0x00,0x00,0x00,0x00,0x00,0x00,0x00,0x00,0x00,0x00,0x00,
 0x00,0x00,0x00,0x00,0x00,0x00,0x00,0x00,0x00,0x00,0x00,0x00,0x00,0x00,0x00,
 0x00,0x00,0x00,0x00,0x00,0x00,0x00,0x00,0x00,0x00,0x00,0x00,0x00,0x00,0x00,
 0x00,0x00,0x00,0x00,0x00,0x00,0x00,0x00,0x00,0x00,0x00,0x00,0x00,0x00,0x00,
 0x00,0x00,0x00,0x00,0x00,0x00,0x00,0x00,0x00,0x00,0x00,0x00,0x00,0x00,0x00,
 0x00,0x00,0x00,0x00,0x00,0x00,0x00,0x00,0x00,0x00,0x00,0x00,0x00,0x00,0x00,
 0x00,0x00,0x00,0x00,0x00,0x00,0x00,0x00,0x00,0x00,0x00,0x00,0x00,0x00,0x00,
 0x00,0x00,0x00,0x00,0x00,0x00,0x00,0x00,0x00,0x00,0x00,0x00,0x00,0x00,0x00,
 0x00,0x00,0x00,0x00,0x00,0x00,0x00,0x00,0x00,0x00,0xc0,0xc7,0x13,0x44,0x9f,
 0xdf,0x67,0x06,0x78,0x3c,0x1e,0x00,0x00,0x00,0x00,0x00,0x40,0x48,0x12,0x44,
 0xa1,0x40,0xa8,0x05,0x84,0x24,0x12,0x00,0x00,0x00,0x00,0x00,0x40,0x28,0x14,
 0x28,0xa1,0x40,0xa8,0x05,0x80,0x52,0x29,0x00,0x00,0x00,0x00,0x00,0x40,0x28,
 0x14,0x28,0xa1,0x5f,0x2c,0x04,0x40,0x4a,0x25,0x00,0x00,0x00,0x00,0x00,0xc0,
 0x27,0x14,0x10,0x9f,0xc0,0x27,0x04,0x20,0x4a,0x25,0x00,0x00,0x00,0x00,0x00,
 0x40,0x20,0x14,0x10,0x81,0x40,0x2c,0x04,0x10,0x46,0x23,0x00,0x00,0x00,0x00,
 0x00,0x40,0x40,0x12,0x10,0x81,0x40,0x28,0x04,0x08,0x24,0x12,0x00,0x00,0x00,
 0x00,0x00,0x40,0xc0,0xf3,0x13,0x81,0x5f,0x28,0x04,0xfc,0x3c,0x1e,0x00,0x00,
 0x00,0x00,0x00,0x00,0x00,0x00,0x00,0x00,0x00,0x00,0x00,0x00,0x00,0x00,0x00,
 0x00,0x00,0x00,0x00,0x00,0x00,0x00,0x00,0x00,0x00,0x00,0x00,0x00,0x00,0x00,
 0x00,0x00,0x00 };
