#define _width 64
#define _height 8
static char _bits[] = {
 0xfe,0xff,0xff,0xff,0xff,0xff,0xff,0x7f,0x01,0x00,0x00,0x00,0x00,0x00,0x00,
 0x80,0x01,0x00,0x00,0x00,0x00,0x00,0x00,0x80,0x01,0x00,0x00,0x00,0x00,0x00,
 0x00,0x80,0x01,0x00,0x00,0x00,0x00,0x00,0x00,0x80,0x01,0x00,0x00,0x00,0x00,
 0x00,0x00,0x80,0x01,0x00,0x00,0x00,0x00,0x00,0x00,0x80,0xfe,0xff,0xff,0xff,
 0xff,0xff,0xff,0x7f };
