#define _width 128
#define _height 48
static char _bits[] = {
 0x00,0x00,0x00,0x00,0x00,0x00,0x00,0x00,0x00,0x00,0x00,0x00,0x00,0x00,0x00,
 0x00,0x00,0x00,0x00,0x00,0x00,0x20,0x00,0x00,0x08,0x60,0x00,0x00,0x00,0x00,
 0x7f,0x00,0x00,0x1f,0xe0,0x3f,0x00,0x20,0x00,0x00,0x1c,0x18,0x00,0x00,0x00,
 0x80,0x80,0x00,0x80,0x20,0x20,0x20,0x00,0x30,0x00,0x00,0x08,0x06,0x00,0x00,
 0x00,0x40,0x00,0x01,0x40,0x40,0x20,0x20,0x00,0x20,0x00,0x00,0x80,0x71,0x00,
 0x00,0x00,0x40,0x00,0x01,0xa0,0xa0,0x20,0xa0,0x0f,0x20,0x00,0x38,0x60,0x50,
 0x00,0x00,0x00,0x40,0xf8,0x00,0x20,0x91,0x20,0xe0,0x38,0x30,0x00,0x28,0x18,
 0x70,0x00,0x00,0x00,0x60,0x04,0x00,0x10,0x0a,0x3f,0xa0,0x4f,0x20,0x00,0x38,
 0x07,0x00,0x00,0x00,0x00,0x1c,0x04,0x00,0x10,0x04,0x00,0x20,0x40,0x20,0x00,
 0xc0,0x00,0x00,0x00,0x00,0x80,0x03,0x04,0x00,0x10,0x0a,0x3f,0x20,0x40,0x30,
 0x00,0xb0,0x83,0x00,0x00,0x00,0x70,0x00,0xf8,0x00,0x10,0x11,0x21,0x20,0x40,
 0x20,0x00,0x8c,0xc3,0x01,0x00,0x00,0x0e,0xc0,0x00,0x01,0xa0,0xa0,0x20,0x20,
 0x40,0x20,0x20,0x03,0x80,0x00,0x00,0xc0,0x01,0x38,0x01,0x01,0x20,0x80,0x40,
 0x10,0x40,0x30,0xe0,0x00,0x00,0x00,0x00,0x30,0x00,0x07,0x02,0x01,0xc0,0x7f,
 0x40,0x10,0x40,0x20,0x30,0x00,0x00,0x00,0x00,0xc8,0xc0,0x00,0xfc,0x00,0x90,
 0x20,0x80,0x08,0x40,0x20,0x2c,0x00,0x00,0x00,0x00,0xc8,0x38,0x00,0x00,0x00,
 0xa0,0x3f,0x00,0x07,0x40,0xe0,0xff,0xff,0xff,0xff,0x03,0x10,0x07,0x00,0x00,
 0x00,0xc0,0x07,0x10,0x00,0x00,0x00,0x11,0x91,0x88,0x88,0x00,0xe0,0x00,0x00,
 0x00,0x00,0x00,0x00,0x08,0x00,0x00,0x00,0x00,0x00,0x00,0x0c,0x00,0x00,0x00,
 0x00,0x00,0x00,0x00,0x2e,0x5d,0xb2,0x03,0xc0,0x2e,0x45,0x9d,0x9d,0x01,0x00,
 0x33,0xe9,0x32,0x00,0x00,0x6a,0x55,0x8a,0x02,0x20,0x2a,0xdd,0x54,0x54,0x02,
 0x80,0x48,0x2b,0x0a,0x00,0x00,0xae,0x5d,0xa2,0x00,0x20,0x2e,0x55,0x5c,0x5c,
 0x02,0x80,0x48,0x6d,0x6a,0x00,0x00,0x2a,0xd5,0x9a,0x03,0xc0,0x6a,0x5d,0x94,
 0x95,0x01,0x00,0x33,0x29,0x32,0x00,0x00,0x00,0x00,0x00,0x00,0x00,0x00,0x00,
 0x00,0x01,0x00,0x00,0x00,0x00,0x00,0x00,0x00,0x00,0x00,0x00,0x00,0x00,0x00,
 0x00,0x00,0x00,0x00,0x00,0x00,0x00,0x00,0x00,0x00,0x00,0x00,0x00,0x00,0x00,
 0x00,0x00,0x00,0x00,0x00,0x00,0x00,0x00,0x00,0x00,0x00,0x00,0x00,0x80,0x08,
 0x00,0xe0,0xff,0x7f,0x06,0x00,0x00,0x00,0x00,0x00,0x00,0x00,0x00,0x00,0x00,
 0x02,0x00,0x10,0x00,0x80,0x19,0x00,0x00,0x00,0x00,0x00,0x00,0x00,0x00,0xc0,
 0xff,0x08,0x00,0x0c,0xe0,0x07,0x20,0x00,0x00,0x00,0x00,0x00,0x00,0x00,0x00,
 0xc0,0x01,0x02,0x00,0x02,0xf0,0x0f,0x40,0x00,0x00,0x00,0x00,0x00,0x00,0x00,
 0x00,0xe0,0x40,0x04,0x00,0x02,0x18,0x18,0x20,0x00,0x00,0x00,0x00,0x00,0x00,
 0x00,0x00,0xf8,0x07,0x00,0x00,0x04,0x18,0x18,0x20,0x00,0x00,0x00,0x00,0x00,
 0x00,0x00,0x00,0x0f,0x3c,0x00,0x00,0x0c,0x08,0x18,0x10,0x00,0x00,0x00,0x00,
 0x00,0x00,0x00,0x80,0xf8,0x47,0x00,0x00,0x10,0x00,0x1c,0x08,0x00,0x00,0x00,
 0x00,0x00,0x00,0x00,0x40,0x00,0x80,0x00,0x00,0x10,0x00,0x0e,0x10,0x00,0x00,
 0x00,0x00,0x00,0x00,0x00,0x40,0x44,0x84,0x00,0x00,0x20,0x00,0x06,0x20,0x00,
 0x00,0x00,0x00,0x00,0x00,0x00,0x40,0x55,0xb5,0x00,0x00,0x40,0x00,0x03,0x20,
 0x00,0x00,0x00,0x00,0x00,0x00,0x00,0x40,0x44,0x84,0x00,0x00,0x60,0x80,0x01,
 0x10,0x00,0x00,0x00,0x00,0x00,0x00,0x00,0x40,0x55,0xb5,0x00,0x00,0x20,0x80,
 0x01,0x08,0x00,0x00,0x00,0x00,0x00,0x00,0x00,0x40,0x44,0x84,0x00,0x00,0x20,
 0x80,0x01,0x04,0x00,0x00,0x00,0x00,0x00,0x00,0x00,0x80,0x00,0x40,0x00,0x00,
 0xc0,0x80,0xc1,0x03,0x00,0x00,0x00,0x00,0x00,0x00,0x00,0x00,0x07,0x38,0x00,
 0x00,0x00,0x01,0x20,0x00,0x00,0x00,0x00,0x00,0x00,0x00,0x00,0x00,0xf8,0x07,
 0x00,0x00,0x00,0x9e,0x19,0x00,0x00,0x00,0x00,0x00,0x00,0x00,0x00,0x00,0x00,
 0x00,0x00,0x00,0x00,0x00,0x00,0x00,0x00,0x00,0x00,0x00,0x00,0x00,0x00,0xd8,
 0x55,0x65,0x06,0x00,0x80,0xa3,0x9a,0x03,0x00,0x00,0x00,0x00,0x00,0x00,0x00,
 0x44,0x4d,0x15,0x09,0x00,0x80,0xa2,0xaa,0x02,0x00,0x00,0x00,0x00,0x00,0x00,
 0x00,0x50,0x44,0x15,0x09,0x00,0x80,0xab,0xaa,0x03,0x00,0x00,0x00,0x00,0x00,
 0x00,0x00,0xcc,0x85,0x64,0x06,0x00,0x80,0x12,0x99,0x02,0x00,0x00,0x00,0x00,
 0x00,0x00,0x00,0x00,0x00,0x00,0x00,0x00,0x00,0x00,0x00,0x00,0x00,0x00,0x00,
 0x00,0x00,0x00 };
