#define _width 128
#define _height 48
static char _bits[] = {
 0x00,0x00,0x00,0x00,0x00,0x00,0x00,0x00,0x00,0x00,0x00,0x00,0x00,0x00,0x00,
 0x00,0x00,0x00,0x00,0x00,0x00,0x20,0x00,0x00,0x08,0x60,0x00,0x00,0x00,0x00,
 0x00,0x00,0x00,0x1f,0xe0,0x3f,0x00,0x20,0x00,0x00,0x1c,0x18,0x00,0x00,0x00,
 0x00,0x00,0x00,0x80,0x20,0x20,0x20,0x00,0x30,0x00,0x00,0x08,0x06,0x00,0x00,
 0x00,0x00,0x00,0x00,0x40,0x40,0x20,0x20,0x00,0x20,0x00,0x00,0x80,0x71,0x00,
 0x00,0x00,0x00,0x00,0x00,0xa0,0xa0,0x20,0xa0,0x0f,0x20,0x00,0x38,0x60,0x50,
 0x00,0x00,0x00,0x00,0x00,0x00,0x20,0x91,0x20,0xe0,0x38,0x30,0x00,0x28,0x18,
 0x70,0x00,0x00,0x00,0x00,0x00,0x00,0x10,0x0a,0x3f,0xa0,0x4f,0x20,0x00,0x38,
 0x07,0x00,0x00,0x00,0x00,0x00,0x00,0x00,0x10,0x04,0x00,0x20,0x40,0x20,0x00,
 0xc0,0x00,0x00,0x00,0x00,0x00,0x00,0x00,0x00,0x10,0x0a,0x3f,0x20,0x40,0x30,
 0x00,0xb0,0x83,0x00,0x00,0x00,0x00,0x00,0x00,0x00,0x10,0x11,0x21,0x20,0x40,
 0x20,0x00,0x8c,0xc3,0x01,0x00,0x00,0x00,0x00,0x00,0x00,0xa0,0xa0,0x20,0x20,
 0x40,0x20,0x20,0x03,0x80,0x00,0x00,0x00,0x00,0x00,0x00,0x00,0x20,0x80,0x40,
 0x10,0x40,0x30,0xe0,0x00,0x00,0x00,0x00,0x00,0x00,0x00,0x00,0x00,0xc0,0x7f,
 0x40,0x10,0x40,0x20,0x30,0x00,0x00,0x00,0x00,0x00,0x00,0x00,0x00,0x00,0x90,
 0x20,0x80,0x08,0x40,0x20,0x2c,0x00,0x00,0x00,0x00,0x00,0x00,0x00,0x00,0x00,
 0xa0,0x3f,0x00,0x07,0x40,0xe0,0xff,0xff,0xff,0xff,0x03,0x00,0x00,0x00,0x00,
 0x00,0xc0,0x07,0x00,0x00,0x00,0x00,0x11,0x91,0x88,0x88,0x00,0x00,0x00,0x00,
 0x00,0x00,0x00,0x00,0x00,0x00,0x00,0x00,0x00,0x00,0x00,0x00,0x00,0x00,0x00,
 0x00,0x00,0x00,0x00,0x2e,0x5d,0xb2,0x03,0x00,0x76,0x29,0xea,0xee,0x00,0x00,
 0x00,0x00,0x00,0x00,0x00,0x6a,0x55,0x8a,0x02,0x00,0x51,0xe9,0xa6,0xa4,0x00,
 0x00,0x00,0x00,0x00,0x00,0x00,0xae,0x5d,0xa2,0x00,0x00,0x71,0xa9,0xe2,0x24,
 0x00,0x00,0x00,0x00,0x00,0x00,0x00,0x2a,0xd5,0x9a,0x03,0x00,0x56,0xeb,0xa2,
 0xe4,0x00,0x00,0x00,0x00,0x00,0x00,0x00,0x00,0x00,0x00,0x00,0x00,0x00,0x00,
 0x00,0x00,0x00,0x00,0x00,0x00,0x00,0x00,0x00,0x00,0x00,0x00,0x00,0x00,0x00,
 0x00,0x00,0x00,0x00,0x00,0x00,0x00,0x00,0x00,0x00,0x00,0x00,0x00,0x00,0x00,
 0x00,0x00,0x00,0x00,0x00,0x00,0x00,0x00,0x00,0x00,0x00,0x00,0x00,0x00,0x00,
 0x00,0x00,0x00,0x00,0x00,0x00,0x00,0x00,0x00,0x00,0x00,0x00,0x00,0x00,0x00,
 0x00,0x00,0x00,0x00,0x00,0x00,0x00,0x00,0x00,0x00,0x00,0x00,0x00,0x00,0x00,
 0x00,0x00,0x00,0x00,0x00,0x00,0x00,0x00,0x00,0x00,0x00,0x00,0x00,0x00,0x00,
 0x00,0x00,0x00,0x00,0x00,0x00,0x00,0x00,0x00,0x00,0x00,0x00,0x00,0x00,0x00,
 0x00,0x00,0x00,0x00,0x00,0x00,0x00,0x00,0x00,0x00,0x00,0x00,0x00,0x00,0x00,
 0x00,0x00,0x00,0x00,0x00,0x00,0x00,0x00,0x00,0x00,0x00,0x00,0x00,0x00,0x00,
 0x00,0x00,0x00,0x00,0x00,0x00,0x00,0x00,0x00,0x00,0x00,0x00,0x00,0x00,0x00,
 0x00,0x00,0x00,0x00,0x00,0x00,0x00,0x00,0x00,0x00,0x00,0x00,0x00,0x00,0x00,
 0x00,0x00,0x00,0x00,0x00,0x00,0x00,0x00,0x00,0x00,0x00,0x00,0x00,0x00,0x00,
 0x00,0x00,0x00,0x00,0x00,0x00,0x00,0x00,0x00,0x00,0x00,0x00,0x00,0x00,0x00,
 0x00,0x00,0x00,0x00,0x00,0x00,0x00,0x00,0x00,0x00,0x00,0x00,0x00,0x00,0x00,
 0x00,0x00,0x00,0x00,0x00,0x00,0x00,0x00,0x00,0x00,0x00,0x00,0x00,0x00,0x00,
 0x00,0x00,0x00,0x00,0x00,0x00,0x00,0x00,0x00,0x00,0x00,0x00,0x00,0x00,0x00,
 0x00,0x00,0x00,0x00,0x00,0x00,0x00,0x00,0x00,0x00,0x00,0x00,0x00,0x00,0x00,
 0x00,0x00,0x00,0x00,0x00,0x00,0x00,0x00,0x00,0x00,0x00,0x00,0x00,0x00,0x00,
 0x00,0x00,0x00,0x00,0x00,0x00,0x00,0x00,0x00,0x00,0x00,0x00,0x00,0x00,0x00,
 0x00,0x00,0x00,0x00,0x00,0x00,0x00,0x00,0x00,0x00,0x00,0x00,0x00,0x00,0x00,
 0x00,0x00,0x00,0x00,0x00,0x00,0x00,0x00,0x00,0x00,0x00,0x00,0x00,0x00,0x00,
 0x00,0x00,0x00,0x00,0x00,0x00,0x00,0x00,0x00,0x00,0x00,0x00,0x00,0x00,0x00,
 0x00,0x00,0x00,0x00,0x00,0x00,0x00,0x00,0x00,0x00,0x00,0x00,0x00,0x00,0x00,
 0x00,0x00,0x00,0x00,0x00,0x00,0x00,0x00,0x00,0x00,0x00,0x00,0x00,0x00,0x00,
 0x00,0x00,0x00,0x00,0x00,0x00,0x00,0x00,0x00,0x00,0x00,0x00,0x00,0x00,0x00,
 0x00,0x00,0x00,0x00,0x00,0x00,0x00,0x00,0x00,0x00,0x00,0x00,0x00,0x00,0x00,
 0x00,0x00,0x00,0x00,0x00,0x00,0x00,0x00,0x00,0x00,0x00,0x00,0x00,0x00,0x00,
 0x00,0x00,0x00 };
