#define _width 128
#define _height 48
static char _bits[] = {
 0x00,0x00,0x00,0x00,0x00,0x30,0x00,0x00,0x00,0x00,0x00,0x00,0x00,0x00,0x00,
 0x00,0x00,0x80,0x00,0x80,0x00,0x20,0x00,0x02,0x08,0x62,0x00,0x00,0x08,0x00,
 0x7f,0x00,0x00,0x1f,0xe0,0x3f,0x00,0x21,0x00,0x00,0x1c,0x18,0x04,0x00,0x00,
 0x80,0x88,0x10,0x80,0x20,0x20,0x20,0x00,0x30,0x00,0x00,0x08,0x06,0x00,0x00,
 0x00,0x40,0x00,0x01,0x40,0xc0,0x20,0xa0,0x00,0x20,0x00,0x02,0x80,0x71,0x00,
 0x00,0x08,0x40,0x00,0x81,0xa0,0xa0,0x20,0xa0,0x0f,0x20,0x00,0x38,0x60,0x52,
 0x40,0x00,0x00,0x40,0xf8,0x00,0x20,0x91,0x20,0xe0,0x38,0x31,0x00,0x28,0x18,
 0x70,0x04,0x00,0x00,0x60,0x04,0x10,0x5a,0x9b,0x7f,0xb5,0x6f,0x68,0x55,0xbd,
 0xaf,0xa4,0x00,0x55,0x95,0xbe,0x56,0x81,0x10,0x04,0x00,0x20,0x40,0x20,0x00,
 0xc0,0x00,0x00,0x40,0x00,0x80,0x03,0x04,0x00,0x10,0x0a,0x3f,0x20,0x40,0x30,
 0x00,0xb0,0x83,0x00,0x00,0x00,0x70,0x00,0xf8,0x80,0x58,0x5b,0x6b,0xb2,0xd5,
 0x60,0x92,0xae,0xcb,0x2b,0x82,0x24,0x5f,0xe9,0x04,0x09,0xa0,0xa0,0x20,0x20,
 0x40,0x20,0x20,0x03,0x80,0x00,0x00,0xc0,0x01,0x38,0x01,0x01,0x20,0x80,0x40,
 0x10,0x40,0x30,0xe0,0x00,0x00,0x00,0x00,0x30,0x00,0x07,0x02,0x81,0xc0,0x7f,
 0x40,0x10,0x40,0x20,0x30,0x00,0x00,0x02,0x40,0xc8,0xc0,0x00,0xfc,0x00,0x90,
 0x20,0x80,0x88,0x40,0x30,0x2c,0x00,0x00,0x00,0x00,0xc8,0x38,0x00,0x00,0x10,
 0xa4,0xbf,0x44,0x07,0xc4,0xe2,0xff,0xff,0xff,0xff,0x17,0x99,0x17,0x02,0x2a,
 0x41,0xc0,0x07,0x00,0x80,0x00,0x00,0x11,0x93,0x88,0x88,0x00,0xe0,0x00,0x00,
 0x00,0x00,0x00,0x00,0x00,0x00,0x00,0x00,0x00,0x00,0x00,0x02,0x00,0x00,0x00,
 0x00,0x00,0x00,0x20,0x2e,0x5d,0xb2,0x03,0x10,0x76,0x29,0xea,0xee,0x00,0x33,
 0xe9,0x32,0xa9,0x8e,0x80,0x6a,0x55,0x8a,0x02,0x80,0x51,0xe9,0xa6,0xa4,0x80,
 0x48,0x2b,0x0a,0x6d,0x0a,0x10,0xae,0x5d,0xa2,0x00,0x01,0x71,0xa9,0xe2,0x24,
 0xc0,0x48,0x6d,0x6a,0x29,0x12,0x80,0xaa,0xd5,0xda,0x43,0x40,0x56,0xeb,0xb2,
 0xf4,0x04,0x33,0x6d,0xba,0x26,0x0e,0x00,0x00,0x00,0x00,0x00,0x00,0x00,0x80,
 0x00,0x00,0x00,0x80,0x00,0x00,0x00,0x80,0x2a,0x2a,0xa9,0x8a,0x14,0x24,0xa9,
 0x2a,0x42,0x45,0x91,0x14,0x10,0x21,0xa9,0x12,0x00,0x00,0x00,0x00,0x00,0x00,
 0x00,0x00,0x00,0x00,0x00,0x80,0x00,0x00,0x00,0x00,0x00,0x00,0x00,0x80,0x88,
 0x00,0xe0,0xff,0x7f,0x06,0x00,0x00,0x04,0x04,0x00,0x80,0x00,0x80,0x00,0x80,
 0x02,0x00,0x10,0x00,0x80,0x19,0x04,0x00,0x00,0x00,0x08,0x00,0x00,0x00,0xc0,
 0xff,0x08,0x00,0x0c,0xe0,0x07,0x22,0x00,0x00,0x00,0x00,0x00,0x10,0x00,0x00,
 0xc0,0x01,0x02,0x10,0x02,0xf0,0x0f,0x40,0x00,0x00,0x08,0x00,0x08,0x00,0x00,
 0x80,0xe0,0xc0,0x04,0x01,0x02,0x1a,0x18,0x20,0x40,0x00,0x00,0x00,0x00,0x00,
 0x00,0x00,0xf8,0x07,0x00,0x00,0x04,0x18,0x18,0x22,0x04,0x00,0x00,0x00,0x08,
 0x80,0x04,0x80,0x0f,0x3c,0x00,0x04,0x0c,0x08,0x18,0x10,0x20,0x00,0x08,0x00,
 0x00,0x10,0x50,0x95,0xfc,0x6f,0x89,0xa0,0xb2,0x12,0x5d,0xaa,0x00,0x55,0xa1,
 0xaa,0x42,0x02,0x00,0x40,0x00,0x80,0x00,0x00,0x10,0x00,0x0e,0x10,0x00,0x00,
 0x08,0x00,0x08,0x80,0x00,0xc0,0x44,0x84,0x00,0x00,0x20,0x00,0x06,0x20,0x00,
 0x00,0x00,0x00,0x00,0x00,0x28,0x69,0xdd,0xb7,0x95,0xa0,0x6a,0x55,0x57,0xb5,
 0x44,0x25,0x95,0x24,0xa9,0x12,0x00,0x40,0x44,0x84,0x00,0x00,0x60,0x80,0x01,
 0x10,0x00,0x00,0x00,0x00,0x00,0x00,0x00,0x40,0x55,0xb5,0x00,0x00,0x20,0x80,
 0x01,0x08,0x00,0x00,0x00,0x00,0x00,0x00,0x00,0x40,0x44,0x84,0x00,0x10,0x20,
 0x82,0x01,0x06,0x00,0x00,0x00,0x00,0x08,0x80,0x02,0x80,0x00,0x40,0x00,0x02,
 0xc0,0x80,0xc1,0x03,0x48,0x00,0x08,0x00,0x00,0x20,0x90,0x44,0x4f,0x78,0x01,
 0x00,0x00,0x11,0x31,0x20,0x00,0x44,0x40,0x44,0x04,0x00,0x00,0x00,0xf8,0x07,
 0x00,0x01,0x00,0x9e,0x19,0x02,0x00,0x00,0x08,0x00,0x00,0x00,0x00,0x80,0x00,
 0x00,0x00,0x10,0x00,0x02,0x00,0x00,0x04,0x00,0x00,0x00,0x00,0x10,0x00,0xec,
 0xaa,0xb2,0x03,0x00,0xa8,0xe9,0x72,0x00,0x00,0x00,0x00,0x00,0x08,0x00,0x90,
 0xa2,0xa6,0x8a,0x02,0x00,0x00,0xaf,0x92,0x02,0x40,0x00,0x08,0x00,0x00,0x80,
 0x00,0x28,0xb2,0x8a,0x00,0x01,0x10,0x69,0x72,0x00,0x00,0x00,0x00,0x00,0x00,
 0x10,0x90,0xe6,0x42,0xba,0x4b,0x20,0x81,0xe9,0x16,0x00,0x02,0x04,0x01,0x00,
 0x24,0x05,0x00,0x00,0x00,0x80,0x00,0x00,0x00,0x00,0x00,0x80,0x00,0x80,0x00,
 0x80,0x00,0x00 };
