#define _width 16
#define _height 16
static char _bits[] = {
 0x00,0x00,0x00,0x00,0xff,0xff,0x00,0x00,0xfc,0x3f,0x02,0x7f,0x7a,0x67,0x86,
 0x5b,0x06,0x58,0x86,0x5f,0x06,0x58,0x86,0x5b,0x86,0x5b,0xfc,0x27,0x00,0x00,
 0xff,0xff };
