#define _width 16
#define _height 16
static char _bits[] = {
 0x00,0x00,0x00,0x00,0xff,0xff,0x00,0x00,0x00,0x00,0x00,0x00,0x00,0x00,0xf8,
 0x1f,0x18,0x18,0xfc,0x3f,0x02,0x60,0x02,0x6a,0x02,0x60,0xfc,0x3f,0x00,0x00,
 0xff,0xff };
