#define _width 16
#define _height 16
static char _bits[] = {
 0x00,0x00,0x00,0x00,0xff,0xff,0x00,0x00,0xfc,0x1f,0xf6,0x37,0xf7,0x77,0xf7,
 0x77,0x07,0x70,0x07,0x70,0xf7,0x77,0xf7,0x77,0xf6,0x37,0xfc,0x1f,0x00,0x00,
 0xff,0xff };
