#define _width 16
#define _height 16
static char _bits[] = {
 0x00,0x00,0x00,0x00,0xff,0xff,0x00,0x00,0xf0,0x07,0x4c,0x1a,0xd2,0x21,0x21,
 0x2a,0x15,0x44,0x11,0x54,0x2a,0x22,0xc2,0x25,0x2c,0x19,0xf0,0x07,0x00,0x00,
 0xff,0xff };
