#define _width 16
#define _height 16
static char _bits[] = {
 0x00,0x00,0x00,0x00,0xff,0xff,0x00,0x00,0x00,0x05,0x00,0x05,0xf8,0x0f,0x04,
 0x10,0x28,0x08,0x24,0x10,0x28,0x08,0x04,0x10,0xf8,0x0f,0x00,0x00,0x00,0x00,
 0xff,0xff };
