#define _width 16
#define _height 16
static char _bits[] = {
 0x00,0x00,0x00,0x00,0xff,0xff,0x00,0x00,0xfc,0x1f,0x02,0x20,0x95,0x5c,0xb1,
 0x42,0xd5,0x46,0x95,0x58,0x95,0x50,0x95,0x4e,0x02,0x20,0xfc,0x1f,0x00,0x00,
 0xff,0xff };
