#define _width 16
#define _height 16
static char _bits[] = {
 0x00,0x00,0x00,0x00,0xff,0xff,0x00,0x00,0xfc,0x1f,0xfe,0x3f,0xb7,0x63,0xab,
 0x7b,0xab,0x63,0xab,0x7b,0xa3,0x7b,0x2b,0x7a,0xfe,0x3f,0xfc,0x1f,0x00,0x00,
 0xff,0xff };
