#define _width 16
#define _height 16
static char _bits[] = {
 0x00,0x00,0x00,0x00,0xff,0xff,0x00,0x00,0xfc,0x1f,0x02,0x20,0x49,0x4d,0x55,
 0x55,0x55,0x55,0x55,0x4d,0x55,0x55,0x89,0x54,0x02,0x20,0xfc,0x1f,0x00,0x00,
 0xff,0xff };
