#define _width 16
#define _height 16
static char _bits[] = {
 0x00,0x00,0x00,0x00,0xff,0xff,0x00,0x00,0xf8,0x1f,0x18,0x18,0x08,0x10,0x18,
 0x18,0x08,0x10,0x0c,0x30,0xfe,0xbf,0xfe,0xe5,0xfe,0xbf,0xfc,0x3f,0x00,0x00,
 0xff,0xff };
