#define _width 16
#define _height 16
static char _bits[] = {
 0x00,0x00,0x00,0x00,0xff,0xff,0x00,0x00,0xfc,0x1f,0xfe,0x3f,0xb7,0x72,0xab,
 0x6a,0xab,0x6a,0xab,0x72,0xab,0x6a,0x77,0x6b,0xfe,0x3f,0xfc,0x1f,0x00,0x00,
 0xff,0xff };
