#define _width 16
#define _height 16
static char _bits[] = {
 0x00,0x00,0x00,0x00,0xff,0xff,0x00,0x00,0xee,0x7f,0x97,0xfd,0x57,0xf8,0xbb,
 0xfd,0xbb,0xff,0xbb,0xff,0xbb,0xff,0xbb,0xff,0xbb,0xff,0xc6,0x7f,0x00,0x00,
 0xff,0xff };
