#define _width 16
#define _height 16
static char _bits[] = {
 0x00,0x00,0x00,0x00,0xff,0xff,0x00,0x00,0x18,0x10,0x24,0x24,0xa4,0x09,0x44,
 0x12,0xe4,0x25,0x74,0x16,0xbc,0x09,0x3c,0x14,0x18,0x20,0x00,0x00,0x00,0x00,
 0xff,0xff };
