#define _width 16
#define _height 16
static char _bits[] = {
 0x00,0x00,0x00,0x00,0xff,0xff,0x00,0x00,0x10,0x00,0x68,0x7e,0xa8,0x7f,0x44,
 0x7e,0x44,0x00,0x7c,0x00,0x7c,0x00,0x7c,0x00,0x7c,0x00,0x38,0x00,0x00,0x00,
 0xff,0xff };
