#define _width 16
#define _height 16
static char _bits[] = {
 0x00,0x00,0x00,0x00,0xff,0xff,0x00,0x00,0xfc,0x38,0xfe,0x78,0x06,0x70,0xfa,
 0x6d,0x16,0x70,0x1a,0x68,0x16,0x70,0xfa,0x68,0x06,0x70,0xfc,0x3f,0x00,0x00,
 0xff,0xff };
