#define _width 16
#define _height 16
static char _bits[] = {
 0x00,0x00,0x00,0x00,0xff,0xff,0x00,0x00,0xfc,0x1f,0xfe,0x3f,0x87,0x78,0xb7,
 0x76,0xb7,0x76,0x87,0x78,0xb7,0x76,0xb7,0x78,0xfe,0x3f,0xfc,0x1f,0x00,0x00,
 0xff,0xff };
