#define _width 16
#define _height 16
static char _bits[] = {
 0x00,0x00,0x00,0x00,0xff,0xff,0x00,0x00,0xe0,0x07,0x20,0x04,0x60,0x06,0x40,
 0x02,0x20,0x04,0x10,0x08,0x08,0x10,0x08,0x10,0x08,0x10,0xf0,0x0f,0x00,0x00,
 0xff,0xff };
