#define _width 16
#define _height 16
static char _bits[] = {
 0x00,0x00,0x00,0x00,0xff,0xff,0x00,0x00,0xe4,0x3f,0xda,0x7f,0x5a,0x7e,0xa2,
 0x7e,0x02,0x7e,0xa2,0x7e,0x42,0x7e,0xc2,0x7f,0xe6,0x7f,0xfc,0x3f,0x00,0x00,
 0xff,0xff };
