#define _width 16
#define _height 16
static char _bits[] = {
 0xff,0xff,0xff,0xff,0xff,0xff,0xff,0xff,0x1f,0xf8,0x1f,0xf8,0x1f,0xf8,0x3f,
 0xfc,0x1f,0xf8,0x0f,0xf0,0x07,0xe0,0x07,0xe0,0x07,0xe0,0x0f,0xf0,0xff,0xff,
 0xff,0xff };
