#define _width 16
#define _height 16
static char _bits[] = {
 0x00,0x00,0x00,0x00,0xff,0xff,0x00,0x00,0xe4,0x2f,0xda,0x5b,0x5a,0x76,0xba,
 0x6d,0x1a,0x5a,0x8a,0x69,0x42,0x76,0xc2,0x6b,0xe6,0x5f,0xfc,0x3f,0x00,0x00,
 0xff,0xff };
