#define _width 16
#define _height 16
static char _bits[] = {
 0x00,0x00,0x00,0x00,0xff,0xff,0x00,0x00,0xfc,0x1f,0x02,0x20,0x49,0x5c,0x55,
 0x44,0x55,0x5c,0x55,0x44,0x5d,0x44,0xd5,0x45,0x02,0x20,0xfc,0x1f,0x00,0x00,
 0xff,0xff };
