#define _width 16
#define _height 16
static char _bits[] = {
 0x00,0x00,0x00,0x00,0xff,0xff,0x00,0x00,0x60,0x00,0x68,0x01,0xf0,0x00,0x60,
 0x00,0xfc,0x3f,0x00,0x06,0x00,0x0f,0x80,0x16,0x00,0x06,0x00,0x00,0x00,0x00,
 0xff,0xff };
