#define _width 16
#define _height 16
static char _bits[] = {
 0x00,0x00,0x00,0x00,0xff,0xff,0x00,0x00,0x78,0x00,0x84,0x1f,0x04,0x20,0x04,
 0x20,0x04,0x20,0x04,0x20,0x04,0x20,0x04,0x20,0xf8,0x1f,0x00,0x00,0x00,0x00,
 0xff,0xff };
