#define _width 16
#define _height 16
static char _bits[] = {
 0x00,0x00,0x00,0x00,0xff,0xff,0x00,0x00,0xfc,0x1f,0xfe,0x3f,0xbf,0x6a,0xb3,
 0x62,0xab,0x62,0xab,0x6a,0xab,0x6a,0x6b,0x6b,0xfe,0x3f,0xfc,0x1f,0x00,0x00,
 0xff,0xff };
