#define _width 16
#define _height 16
static char _bits[] = {
 0x00,0x00,0x00,0x00,0xff,0xff,0x00,0x00,0xfc,0x3a,0xfe,0x7a,0x06,0x70,0xfa,
 0x6f,0xd6,0x77,0xda,0x6f,0xd6,0x77,0xfa,0x6f,0x06,0x70,0xfc,0x3f,0x00,0x00,
 0xff,0xff };
