#define _width 16
#define _height 16
static char _bits[] = {
 0x00,0x00,0x00,0x00,0xff,0xff,0x00,0x00,0x18,0x00,0x24,0x00,0xa4,0x01,0x5c,
 0x01,0xfc,0x01,0x5c,0x01,0xbc,0x01,0x3c,0x00,0x18,0x00,0x00,0x00,0x00,0x00,
 0xff,0xff };
