#define _width 16
#define _height 16
static char _bits[] = {
 0x00,0x00,0x00,0x00,0xff,0xff,0x00,0x00,0x84,0x3f,0x7a,0x60,0xfa,0x5f,0xfa,
 0x5f,0xfa,0x5f,0xfa,0x5f,0xfa,0x5f,0xfa,0x5f,0x02,0x60,0xfc,0x3f,0x00,0x00,
 0xff,0xff };
