#define _width 16
#define _height 16
static char _bits[] = {
 0x00,0x00,0x00,0x00,0xff,0xff,0x00,0x00,0x9c,0x3f,0x96,0x7e,0x0e,0x7f,0x9e,
 0x7f,0x02,0x40,0xfe,0x79,0xfe,0x70,0x7e,0x69,0xfe,0x79,0xfc,0x3f,0x00,0x00,
 0xff,0xff };
