#define _width 16
#define _height 16
static char _bits[] = {
 0x00,0x00,0x00,0x00,0xff,0xff,0x00,0x00,0xfc,0x1f,0xfe,0x3f,0x6b,0x63,0x4f,
 0x7d,0x2b,0x79,0x6b,0x67,0x6b,0x6f,0x6b,0x71,0xfe,0x3f,0xfc,0x1f,0x00,0x00,
 0xff,0xff };
