#define _width 16
#define _height 16
static char _bits[] = {
 0x00,0x00,0x00,0x00,0xff,0xff,0x00,0x00,0x08,0x54,0x08,0x00,0x90,0x10,0xd0,
 0x00,0x62,0x49,0x00,0x01,0x00,0x02,0x48,0x02,0x00,0x04,0x10,0x08,0x00,0x00,
 0xff,0xff };
