#define _width 16
#define _height 16
static char _bits[] = {
 0x00,0x00,0x00,0x00,0xff,0xff,0x00,0x00,0xee,0x7f,0x97,0x81,0x57,0x80,0xbb,
 0x81,0xbb,0xff,0x83,0xff,0x83,0xff,0x83,0xff,0x83,0xff,0xc6,0x7f,0x00,0x00,
 0xff,0xff };
