#define _width 16
#define _height 16
static char _bits[] = {
 0x00,0x00,0x00,0x00,0xff,0xff,0x00,0x00,0x00,0x00,0xfc,0x00,0x84,0x18,0x78,
 0x24,0xf8,0x27,0x78,0x20,0xf8,0x27,0x78,0x24,0x78,0x24,0x00,0x18,0x00,0x00,
 0xff,0xff };
