#define _width 16
#define _height 16
static char _bits[] = {
 0x00,0x00,0x00,0x00,0xff,0xff,0x00,0x00,0x00,0x07,0x00,0x07,0xf8,0x0f,0x04,
 0x12,0xe8,0x0f,0xe4,0x17,0xe8,0x0f,0x04,0x17,0xf8,0x0f,0x00,0x00,0x00,0x00,
 0xff,0xff };
