#define _width 128
#define _height 48
static char _bits[] = {
 0x00,0x00,0x00,0x00,0x00,0x00,0x00,0x00,0x00,0x00,0x00,0x00,0x00,0x00,0x00,
 0x00,0x00,0x00,0x00,0x00,0x00,0x00,0x00,0x00,0xfc,0x1f,0x00,0x00,0xff,0xff,
 0x07,0x00,0x00,0xfe,0xff,0x7f,0x00,0x00,0x00,0x00,0x02,0x20,0x00,0x80,0xff,
 0xff,0x0f,0x00,0x00,0xfe,0xff,0xff,0x00,0x00,0x00,0x00,0x01,0x40,0x00,0x80,
 0xff,0xff,0x0f,0x00,0x00,0x00,0x00,0xc0,0x01,0x00,0x7c,0x00,0xff,0x7f,0x00,
 0x00,0xff,0xff,0x07,0x00,0x00,0x00,0x00,0x80,0x03,0x00,0x82,0x00,0x04,0x10,
 0x00,0x00,0x02,0x00,0x02,0x00,0x00,0x00,0x00,0x00,0x3b,0x00,0x45,0x01,0x04,
 0x10,0x00,0x00,0x0a,0x80,0x02,0x00,0x00,0x00,0x00,0x00,0x46,0x00,0x29,0xff,
 0x07,0x10,0x00,0x00,0x0a,0x8e,0x02,0x00,0x00,0x00,0x00,0x00,0x44,0x00,0x11,
 0x00,0x00,0x10,0x00,0x00,0x0a,0x91,0x02,0x00,0x00,0x00,0x00,0x00,0x46,0x00,
 0x29,0xff,0x07,0x10,0x00,0x00,0x8a,0xa0,0x02,0x00,0x00,0x00,0x00,0x00,0x3b,
 0x00,0x45,0x01,0x04,0x10,0x00,0x00,0x8a,0xa0,0x02,0x00,0x00,0x00,0x00,0x80,
 0x03,0x00,0x82,0x00,0x04,0x10,0x00,0x00,0x8a,0xa0,0x02,0x00,0x00,0x00,0x00,
 0x80,0x01,0x00,0x7c,0x00,0x04,0x10,0x00,0x00,0x0a,0x91,0x02,0x00,0x00,0xfe,
 0xff,0xff,0x00,0x00,0x00,0x00,0xff,0x7f,0x00,0x00,0x0a,0x8e,0x02,0x00,0x00,
 0xfe,0xff,0x7f,0x00,0x00,0x00,0x00,0x01,0x40,0x00,0x00,0xf2,0x7f,0x02,0x00,
 0x00,0x00,0x00,0x00,0x00,0x00,0x00,0x00,0x02,0x20,0x00,0x00,0x06,0x00,0x03,
 0x00,0x00,0x00,0x00,0x00,0x00,0x00,0x00,0x00,0xfc,0x1f,0x00,0x00,0xfc,0xff,
 0x01,0x00,0x00,0x00,0x00,0x00,0x00,0x00,0x00,0x00,0x00,0x00,0x00,0x00,0x00,
 0x00,0x00,0x00,0xf8,0xd5,0xae,0xf7,0xea,0x01,0x44,0xee,0xdc,0x1d,0x00,0x40,
 0xc4,0x2e,0x02,0x00,0x50,0x5d,0x6b,0xa5,0x5a,0x01,0x44,0x2a,0x55,0x25,0x00,
 0x40,0x24,0x2a,0x02,0x00,0x50,0xd4,0x22,0xa7,0x4a,0x00,0x28,0x2e,0x45,0x24,
 0x00,0x80,0x22,0x22,0x02,0x00,0xd0,0x55,0x2e,0xa5,0xcb,0x01,0x10,0xea,0xdc,
 0x1d,0x00,0x00,0xc1,0xee,0x0e,0x00,0x00,0x00,0x00,0x00,0x00,0x00,0x00,0x00,
 0x00,0x00,0x00,0x00,0x00,0x00,0x00,0x00,0x00,0x00,0x00,0x00,0x00,0x00,0x00,
 0x00,0x00,0x00,0x00,0x00,0x00,0x00,0x00,0x00,0x00,0x00,0x00,0x00,0x00,0x00,
 0x00,0x00,0x00,0x00,0x00,0x00,0x00,0x00,0x00,0x00,0x00,0x00,0x00,0x00,0x00,
 0x00,0x00,0x00,0x00,0x00,0x00,0x00,0x00,0x00,0x00,0x00,0x00,0x00,0x00,0x00,
 0x00,0x00,0x00,0x00,0x00,0x00,0x00,0x00,0x00,0x00,0x00,0x00,0x00,0x00,0x00,
 0x00,0x00,0x00,0x00,0x00,0x00,0x00,0x00,0x00,0x00,0x00,0x00,0x00,0x00,0x00,
 0x00,0x00,0x00,0x00,0x00,0x00,0x00,0x00,0x00,0x00,0x00,0x00,0x00,0x00,0x00,
 0x00,0x00,0x00,0x00,0x00,0x00,0x00,0x00,0x00,0x00,0x00,0x00,0x00,0x00,0x00,
 0x00,0x00,0x00,0x00,0x00,0x00,0x00,0x00,0x00,0x00,0x00,0x00,0x00,0x00,0x00,
 0x00,0x00,0x00,0x00,0x00,0x00,0x00,0x00,0x00,0x00,0x00,0x00,0x00,0x00,0x00,
 0x00,0x00,0x00,0x00,0x00,0x00,0x00,0x00,0x00,0x00,0x00,0x00,0x00,0x00,0x00,
 0x00,0x00,0x00,0x00,0x00,0x00,0x00,0x00,0x00,0x00,0x00,0x00,0x00,0x00,0x00,
 0x00,0x00,0x00,0x00,0x00,0x00,0x00,0x00,0x00,0x00,0x00,0x00,0x00,0x00,0x00,
 0x00,0x00,0x00,0x00,0x00,0x00,0x00,0x00,0x00,0x00,0x00,0x00,0x00,0x00,0x00,
 0x00,0x00,0x00,0x00,0x00,0x00,0x00,0x00,0x00,0x00,0x00,0x00,0x00,0x00,0x00,
 0x00,0x00,0x00,0x00,0x00,0x00,0x00,0x00,0x00,0x00,0x00,0x00,0x00,0x00,0x00,
 0x00,0x00,0x00,0x00,0x00,0x00,0x00,0x00,0x00,0x00,0x00,0x00,0x00,0x00,0x00,
 0x00,0x00,0x00,0x00,0x00,0x00,0x00,0x00,0x00,0x00,0x00,0x00,0x00,0x00,0x00,
 0x00,0x00,0x00,0x00,0x00,0x00,0x00,0x00,0x00,0x00,0x00,0x00,0x00,0x00,0x00,
 0x00,0x00,0x00,0x00,0x00,0x00,0x00,0x00,0x00,0x00,0x00,0x00,0x00,0x00,0x00,
 0x00,0x00,0x00,0x00,0x00,0x00,0x00,0x00,0x00,0x00,0x00,0x00,0x00,0x00,0x00,
 0x00,0x00,0x00,0x00,0x00,0x00,0x00,0x00,0x00,0x00,0x00,0x00,0x00,0x00,0x00,
 0x00,0x00,0x00,0x00,0x00,0x00,0x00,0x00,0x00,0x00,0x00,0x00,0x00,0x00,0x00,
 0x00,0x00,0x00,0x00,0x00,0x00,0x00,0x00,0x00,0x00,0x00,0x00,0x00,0x00,0x00,
 0x00,0x00,0x00,0x00,0x00,0x00,0x00,0x00,0x00,0x00,0x00,0x00,0x00,0x00,0x00,
 0x00,0x00,0x00,0x00,0x00,0x00,0x00,0x00,0x00,0x00,0x00,0x00,0x00,0x00,0x00,
 0x00,0x00,0x00,0x00,0x00,0x00,0x00,0x00,0x00,0x00,0x00,0x00,0x00,0x00,0x00,
 0x00,0x00,0x00 };
