#define _width 128
#define _height 16
static char _bits[] = {
 0x00,0x00,0x00,0x00,0x00,0x00,0x00,0x00,0x00,0x00,0x00,0x00,0x00,0x00,0x00,
 0x00,0x00,0x00,0x00,0x00,0x00,0x00,0x00,0x00,0x00,0x00,0x00,0x00,0x00,0x00,
 0x00,0x00,0xfc,0xff,0xff,0xff,0xff,0xff,0xff,0xff,0xff,0xff,0xff,0xff,0xff,
 0xff,0xff,0x3f,0x02,0x00,0x00,0x00,0x00,0x00,0x00,0x00,0x00,0x00,0x00,0x00,
 0x00,0x00,0x00,0x40,0x01,0x00,0x00,0x00,0x00,0x00,0x00,0x00,0xe0,0x07,0xf0,
 0x01,0xfc,0x0f,0x00,0x80,0x01,0x00,0x00,0x00,0x00,0x00,0x00,0x00,0x20,0x04,
 0x10,0x01,0x92,0x0a,0x00,0x80,0x01,0x00,0x00,0x00,0x00,0x00,0x00,0x00,0x60,
 0x06,0x1c,0x07,0x91,0x0a,0x00,0x80,0x01,0x00,0x00,0x00,0x00,0x00,0x00,0x00,
 0x40,0x02,0x04,0x04,0x01,0x08,0xfe,0x87,0x01,0x00,0x00,0x00,0x00,0x00,0x00,
 0x00,0x20,0x04,0x04,0x04,0xd9,0x09,0x06,0x86,0x01,0x00,0x00,0x00,0x00,0x00,
 0x00,0x00,0x10,0x08,0x04,0x04,0x85,0x0a,0xff,0x8f,0x01,0x00,0x00,0x00,0x00,
 0x00,0x00,0x00,0x08,0x10,0x04,0x04,0x99,0x8a,0x00,0x98,0x01,0x00,0x00,0x00,
 0x00,0x00,0x00,0x00,0x08,0x10,0x08,0x02,0xa1,0x89,0x80,0x9a,0x01,0x00,0x00,
 0x00,0x00,0x00,0x00,0x00,0x08,0x10,0xf0,0x01,0x19,0x88,0x00,0x98,0x01,0x00,
 0x00,0x00,0x00,0x00,0x00,0x00,0xf0,0x0f,0xc0,0x1f,0xff,0x0f,0xff,0x8f,0x02,
 0x00,0x00,0x00,0x00,0x00,0x00,0x00,0x00,0x00,0x00,0x00,0x00,0x00,0x00,0x40,
 0xfc,0xff,0xff,0xff,0xff,0xff,0xff,0xff,0xff,0xff,0xff,0xff,0xff,0xff,0xff,
 0x3f };
