#define _width 128
#define _height 48
static char _bits[] = {
 0x00,0x00,0x00,0x00,0x00,0x00,0x00,0x00,0x00,0x00,0x00,0x00,0x00,0x00,0x00,
 0x00,0x00,0x00,0x7c,0x00,0x00,0x7f,0x00,0xfe,0x3f,0x00,0x00,0x00,0x00,0x00,
 0x00,0x00,0x00,0x00,0xfe,0x00,0xc0,0xff,0x03,0xfe,0xff,0x00,0x00,0x00,0x00,
 0x00,0x00,0x00,0x00,0x00,0xff,0x00,0xf0,0xff,0x07,0xfe,0xff,0x01,0x00,0x00,
 0x00,0x00,0x00,0x00,0x00,0x00,0xff,0x00,0xf8,0xff,0x0f,0xfe,0xff,0x03,0x00,
 0x00,0x00,0x00,0x00,0x00,0x00,0x80,0xff,0x00,0xfc,0xc0,0x1f,0x1f,0xf0,0x03,
 0x00,0x00,0x00,0x00,0x00,0x00,0x00,0x80,0xff,0x00,0x7e,0x80,0x1f,0x1f,0xe0,
 0x03,0x00,0x00,0x00,0x00,0x00,0x00,0x00,0xc0,0xff,0x00,0x3e,0x00,0x1f,0x1f,
 0xe0,0x03,0x00,0x00,0x00,0x00,0x00,0x00,0x00,0xc0,0xf7,0x00,0x1f,0x00,0x1f,
 0x1f,0xe0,0x01,0x00,0x00,0x00,0x00,0x00,0x00,0x00,0xe0,0xf3,0x81,0x0f,0x00,
 0x00,0x0f,0xf0,0x01,0x00,0x00,0x00,0x00,0x00,0x00,0x00,0xe0,0xf1,0x81,0x0f,
 0x00,0x80,0x0f,0xf0,0x01,0x00,0x00,0x00,0x00,0x00,0x00,0x00,0xf0,0xf1,0x81,
 0x0f,0x00,0x80,0x0f,0xf8,0x00,0x00,0x00,0x00,0x00,0x00,0x00,0x00,0xf8,0xf0,
 0xc1,0x07,0x00,0x80,0xff,0xff,0x00,0x00,0x00,0x00,0x00,0x00,0x00,0x00,0xf8,
 0xf0,0xc1,0x07,0x00,0x80,0xff,0x7f,0x00,0x00,0x00,0x00,0x00,0x00,0x00,0x00,
 0x7c,0xf0,0xc1,0x07,0x00,0x80,0xff,0x3f,0x00,0x00,0x00,0x00,0x00,0x00,0x00,
 0x00,0x7c,0xf0,0xc1,0x07,0x00,0xc0,0xff,0x0f,0x00,0x00,0x00,0x00,0x00,0x00,
 0x00,0x00,0xfe,0xff,0xc1,0x07,0x00,0xc0,0x07,0x00,0x00,0x00,0x00,0x00,0x00,
 0x00,0x00,0x00,0xfe,0xff,0xc3,0x07,0xc0,0xc7,0x07,0x01,0x00,0x00,0x00,0x00,
 0x00,0x00,0x00,0x00,0xff,0xff,0xc3,0x07,0xe0,0xc7,0x03,0x00,0x00,0x00,0x00,
 0x00,0x00,0x00,0x00,0x00,0xff,0xff,0x83,0x0f,0xf0,0xc3,0x03,0x45,0xe6,0x9e,
 0x14,0xbd,0xe8,0x1c,0x03,0x80,0x0f,0xe0,0x83,0x1f,0xfc,0xc1,0x03,0x4d,0x49,
 0xa2,0xb4,0x85,0x49,0xa2,0x04,0x80,0x07,0xe0,0x83,0xff,0xff,0xe1,0x03,0x55,
 0x43,0xa2,0x54,0xbd,0x4a,0xa2,0x01,0xc0,0x07,0xe0,0x03,0xff,0x7f,0xe0,0x03,
 0x65,0x4c,0x9e,0x14,0x85,0x4c,0x22,0x06,0xe0,0x07,0xe0,0x03,0xfe,0x3f,0xe0,
 0x03,0x45,0x49,0x92,0x14,0x85,0x48,0xa2,0x04,0xe0,0x03,0xc0,0x03,0xf0,0x07,
 0xe0,0x01,0x45,0x46,0x22,0x17,0xbd,0x48,0x1c,0x03,0x00,0x00,0x00,0x00,0x00,
 0x00,0x00,0x00,0x00,0x00,0x00,0x00,0x00,0x00,0x00,0x00,0x00,0x00,0x00,0x00,
 0x00,0x00,0x00,0x00,0x00,0x00,0x00,0x00,0x00,0x00,0x00,0x00,0x00,0x00,0x00,
 0x00,0x00,0x00,0x00,0x00,0x00,0x00,0x00,0x00,0x00,0x00,0x00,0x00,0x00,0x00,
 0x00,0x00,0x00,0x00,0x00,0x00,0x00,0x00,0x00,0x00,0x00,0x00,0x00,0x00,0x00,
 0x00,0x00,0x00,0x00,0x00,0x00,0x00,0x00,0x00,0x00,0x00,0x00,0x00,0x00,0x00,
 0x00,0x00,0x00,0x00,0x00,0x00,0x00,0x00,0x00,0x00,0x00,0x00,0x00,0x00,0x00,
 0x00,0x00,0x00,0x00,0x00,0x00,0x00,0x00,0x00,0x00,0x00,0x00,0x00,0x00,0x00,
 0x00,0x00,0x00,0x00,0x00,0xe0,0xf3,0x71,0x46,0x9e,0xd9,0xef,0xfb,0x7d,0x00,
 0x00,0x00,0x00,0x00,0x00,0x00,0x20,0x44,0x88,0x46,0x92,0x56,0x80,0x08,0x84,
 0x00,0x00,0x00,0x00,0x00,0x00,0x00,0x20,0x44,0x04,0x4a,0xa1,0x56,0x80,0x08,
 0x84,0x00,0x00,0x00,0x00,0x00,0x00,0x00,0x20,0x44,0x04,0x4a,0xa1,0xd0,0x8f,
 0xf8,0xc5,0x00,0x00,0x00,0x00,0x00,0x00,0x00,0xe0,0x43,0x04,0x52,0xa1,0x50,
 0x80,0x08,0x7c,0x00,0x00,0x00,0x00,0x00,0x00,0x00,0x20,0x40,0x04,0x52,0xa1,
 0x50,0x80,0x08,0xc4,0x00,0x00,0x00,0x00,0x00,0x00,0x00,0x20,0x40,0x88,0x62,
 0x92,0x50,0x80,0x08,0x84,0x00,0x00,0x00,0x00,0x00,0x00,0x00,0x20,0xf0,0x71,
 0x62,0x9e,0xd0,0x8f,0xf8,0x85,0x00,0x00,0x00,0x00,0x00,0x00,0x00,0x00,0x00,
 0x00,0x00,0x00,0x00,0x00,0x00,0x00,0x00,0x00,0x00,0x00,0x00,0x00,0x00,0x00,
 0x00,0x00,0x00,0x00,0x00,0x00,0x00,0x00,0x00,0x00,0x00,0x00,0x00,0x00,0x00,
 0x00,0x00,0x00,0x00,0x00,0x00,0x00,0x00,0x00,0x00,0x00,0x00,0x00,0xe0,0xff,
 0xff,0xff,0xff,0xff,0xff,0xff,0xff,0xff,0xff,0xff,0xff,0xff,0xff,0x01,0x00,
 0x00,0x00,0x00,0x00,0x00,0x00,0x00,0x00,0x00,0x00,0x00,0x00,0x00,0x00,0x00,
 0xe0,0xff,0xff,0xff,0xff,0xff,0xff,0xff,0xff,0xff,0xff,0xff,0xff,0xff,0xff,
 0x01,0x00,0x00,0x00,0x00,0x00,0x00,0x00,0x00,0x00,0x00,0x00,0x00,0x00,0x00,
 0x00,0x00,0x00,0x00,0x00,0x00,0x00,0x00,0x00,0x00,0x00,0x00,0x00,0x00,0x00,
 0x00,0x00,0x00 };
