#define _width 128
#define _height 48
static char _bits[] = {
 0x00,0x00,0x00,0x00,0x00,0x00,0x00,0x00,0x00,0x00,0x00,0x00,0x00,0x00,0x00,
 0x00,0x00,0x00,0x00,0x00,0x00,0x00,0x00,0x00,0x00,0x00,0x00,0x00,0x00,0x00,
 0x00,0x00,0x00,0x00,0x00,0x00,0x00,0x00,0x00,0x00,0x00,0x00,0x00,0x00,0x00,
 0x00,0x00,0x00,0x00,0x00,0x00,0x00,0x00,0x00,0x00,0x00,0x00,0x00,0x00,0x00,
 0x00,0x00,0x00,0x00,0x00,0x00,0x00,0x00,0x00,0x00,0x00,0x00,0x00,0x00,0x00,
 0x00,0x00,0x00,0x00,0x00,0x00,0x00,0x00,0x00,0xc0,0x01,0x04,0x00,0x00,0x00,
 0x00,0x00,0x40,0x48,0x00,0x00,0x70,0x00,0x00,0x00,0x00,0x01,0x00,0x00,0x00,
 0x00,0x00,0x00,0x20,0x08,0x00,0x00,0x90,0x00,0x00,0x00,0x00,0x01,0x00,0x00,
 0x40,0x00,0x00,0x00,0x00,0x08,0x00,0x00,0x90,0xcc,0x33,0x27,0x19,0x91,0xc6,
 0x33,0xe7,0x19,0x60,0x80,0x33,0x6e,0x38,0x03,0x90,0x52,0x48,0xa9,0x24,0x51,
 0x44,0x4d,0x49,0x24,0x90,0x40,0x48,0x49,0xa4,0x04,0x90,0x9e,0x7b,0xc9,0x24,
 0x61,0x44,0x7d,0x49,0x24,0xf0,0x40,0x48,0x49,0xa4,0x04,0xd0,0x02,0x0a,0xc9,
 0x34,0x61,0x44,0x0d,0x49,0x34,0x10,0x40,0x68,0x4d,0xb4,0x06,0x70,0xdc,0x71,
 0x49,0x1c,0x26,0x5f,0x75,0xc9,0x19,0xe0,0x80,0x33,0xfe,0x39,0x03,0x00,0x00,
 0x00,0x00,0x00,0x00,0x00,0x00,0x00,0x00,0x00,0x00,0x00,0x00,0x20,0x00,0x00,
 0x00,0x00,0x00,0x00,0x00,0x00,0x00,0x00,0x00,0x00,0x00,0x00,0x00,0x18,0x00,
 0x00,0x00,0x00,0x00,0x00,0x00,0x00,0x00,0x00,0x00,0x00,0x00,0x00,0x00,0x00,
 0x00,0x00,0x00,0x00,0x00,0x00,0x00,0x00,0x00,0x00,0x00,0x00,0x00,0x00,0x00,
 0x00,0x00,0x00,0x00,0x00,0x00,0x00,0x00,0x00,0x00,0x00,0x00,0x00,0x00,0x00,
 0x00,0x00,0x00,0xc0,0xff,0xff,0xff,0xff,0xff,0xff,0xff,0xff,0xff,0xff,0xff,
 0xff,0xff,0xff,0x03,0x20,0x00,0x00,0x00,0x00,0x00,0x00,0x00,0x00,0x00,0x00,
 0x00,0x00,0x00,0x00,0x04,0x10,0x00,0x00,0x00,0x00,0x00,0x00,0x00,0x00,0x00,
 0x00,0x00,0x00,0x00,0x00,0x08,0x08,0x00,0x00,0x00,0x00,0x00,0x00,0x00,0x00,
 0x00,0x00,0x00,0x00,0x00,0x00,0x10,0x04,0x00,0x00,0x00,0x00,0x00,0x00,0x00,
 0x00,0x00,0x00,0x07,0x00,0x00,0x01,0x20,0x84,0x01,0x10,0x00,0x00,0x00,0xe0,
 0x0f,0x00,0x00,0x00,0x04,0x00,0x00,0x00,0x20,0x84,0x01,0x10,0x00,0x00,0x00,
 0x00,0x01,0x00,0x00,0x00,0x04,0x00,0x00,0x00,0x20,0x84,0xd2,0x7c,0x68,0x1e,
 0x11,0x00,0xc1,0xe1,0x69,0x38,0x04,0x0e,0xcb,0xe1,0x21,0x44,0x32,0x11,0x58,
 0x20,0x0a,0x00,0x21,0x12,0x98,0x44,0x04,0x91,0x0c,0x01,0x22,0x44,0x12,0x11,
 0x08,0x3c,0x04,0x00,0xe1,0x13,0x88,0x44,0x04,0x91,0x08,0xc1,0x23,0xc4,0x13,
 0x11,0x08,0x22,0x04,0x00,0x21,0x10,0x88,0x44,0x04,0x91,0x08,0x21,0x22,0x24,
 0x16,0x11,0x08,0x32,0x0a,0x00,0x21,0x30,0x88,0x6c,0x04,0x99,0x0c,0x21,0x23,
 0x24,0x14,0x71,0x08,0x2c,0x11,0x00,0xc1,0xc3,0x89,0x18,0x18,0x0e,0xcb,0xe7,
 0x22,0x04,0x00,0x00,0x00,0x00,0x00,0x00,0x00,0x00,0x00,0x00,0x00,0x00,0x0c,
 0x00,0x20,0x04,0x00,0x00,0x00,0x00,0x00,0x00,0x00,0x00,0x00,0x00,0x00,0x00,
 0x07,0x00,0x20,0x04,0x00,0x00,0x00,0x00,0x00,0x00,0x00,0x00,0x00,0x00,0x00,
 0x00,0x00,0x00,0x20,0xc4,0x01,0x00,0x00,0x00,0x3f,0x00,0x80,0x00,0x00,0x00,
 0x00,0x00,0x01,0x00,0x20,0x44,0x06,0x00,0x00,0x00,0x01,0x00,0x00,0x00,0x00,
 0x00,0x00,0x00,0x01,0x00,0x20,0x24,0xf4,0x88,0x78,0x00,0x01,0x4f,0xe4,0xf0,
 0x78,0x3c,0x1c,0xcd,0x87,0xc3,0x23,0x24,0x14,0x89,0x04,0x00,0xbf,0x48,0x84,
 0x10,0x81,0x54,0x22,0x13,0x41,0x24,0x20,0x24,0x14,0x89,0x1c,0x00,0x81,0x48,
 0x84,0x10,0xf1,0x54,0x3e,0x11,0x41,0xe4,0x20,0x24,0x14,0x89,0x60,0x00,0x81,
 0x48,0x84,0x10,0x89,0x54,0x02,0x11,0x41,0x04,0x23,0x64,0x32,0xc9,0x40,0x00,
 0x81,0x4c,0x86,0x30,0xc9,0x54,0x02,0x11,0x41,0x06,0x22,0x84,0xd3,0xb0,0x3c,
 0x00,0x3f,0x8b,0xe5,0xd3,0xb0,0x54,0x3c,0x11,0x87,0xe3,0x21,0x04,0x10,0x00,
 0x00,0x00,0x00,0x08,0x00,0x10,0x00,0x00,0x00,0x00,0x00,0x00,0x20,0x08,0x10,
 0x00,0x00,0x00,0x00,0x08,0x00,0x10,0x00,0x00,0x00,0x00,0x00,0x00,0x10,0x10,
 0x00,0x00,0x00,0x00,0x00,0x00,0x00,0x00,0x00,0x00,0x00,0x00,0x00,0x00,0x08,
 0x20,0x00,0x00,0x00,0x00,0x00,0x00,0x00,0x00,0x00,0x00,0x00,0x00,0x00,0x00,
 0x04,0xc0,0xff,0xff,0xff,0xff,0xff,0xff,0xff,0xff,0xff,0xff,0xff,0xff,0xff,
 0xff,0x03,0x00,0x00,0x00,0x00,0x00,0x00,0x00,0x00,0x00,0x00,0x00,0x00,0x00,
 0x00,0x00,0x00 };
