#define _width 128
#define _height 48
static char _bits[] = {
 0x00,0x00,0x00,0x00,0x00,0x00,0x00,0x00,0x00,0x00,0x00,0x00,0x00,0x00,0x00,
 0x00,0x00,0x00,0x7c,0x00,0x00,0x7f,0x00,0xfe,0x3f,0x00,0x00,0x00,0x00,0x00,
 0x00,0x00,0x00,0x00,0xfe,0x00,0xc0,0xff,0x03,0xfe,0xff,0x00,0x00,0x00,0x00,
 0x00,0x00,0x00,0x00,0x00,0xff,0x00,0xf0,0xff,0x07,0xfe,0xff,0x01,0x00,0x00,
 0x00,0x00,0x00,0x00,0x00,0x00,0xff,0x00,0xf8,0xff,0x0f,0xfe,0xff,0x03,0x00,
 0x00,0x00,0x00,0x00,0x00,0x00,0x80,0xff,0x00,0xfc,0xc0,0x1f,0x1f,0xf0,0x03,
 0x00,0x00,0x00,0x00,0x00,0x00,0x00,0x80,0xff,0x00,0x7e,0x80,0x1f,0x1f,0xe0,
 0x03,0x00,0x00,0x00,0x00,0x00,0x00,0x00,0xc0,0xff,0x00,0x3e,0x00,0x1f,0x1f,
 0xe0,0x03,0x00,0x00,0x00,0x00,0x00,0x00,0x00,0xc0,0xf7,0x00,0x1f,0x00,0x1f,
 0x1f,0xe0,0x01,0x00,0x00,0x00,0x00,0x00,0x00,0x00,0xe0,0xf3,0x81,0x0f,0x00,
 0x00,0x0f,0xf0,0x01,0x00,0x00,0x00,0x00,0x00,0x00,0x00,0xe0,0xf1,0x81,0x0f,
 0x00,0x80,0x0f,0xf0,0x01,0x00,0x00,0x00,0x00,0x00,0x00,0x00,0xf0,0xf1,0x81,
 0x0f,0x00,0x80,0x0f,0xf8,0x00,0x00,0x00,0x00,0x00,0x00,0x00,0x00,0xf8,0xf0,
 0xc1,0x07,0x00,0x80,0xff,0xff,0x00,0x00,0x00,0x00,0x00,0x00,0x00,0x00,0xf8,
 0xf0,0xc1,0x07,0x00,0x80,0xff,0x7f,0x00,0x00,0x00,0x00,0x00,0x00,0x00,0x00,
 0x7c,0xf0,0xc1,0x07,0x00,0x80,0xff,0x3f,0x00,0x00,0x00,0x00,0x00,0x00,0x00,
 0x00,0x7c,0xf0,0xc1,0x07,0x00,0xc0,0xff,0x0f,0x00,0x00,0x00,0x00,0x00,0x00,
 0x00,0x00,0xfe,0xff,0xc1,0x07,0x00,0xc0,0x07,0x00,0x00,0x00,0x00,0x00,0x00,
 0x00,0x00,0x00,0xfe,0xff,0xc3,0x07,0xc0,0xc7,0x07,0x10,0x00,0x00,0x00,0x00,
 0x00,0x00,0x00,0x00,0xff,0xff,0xc3,0x07,0xe0,0xc7,0x03,0x00,0x00,0x00,0x00,
 0x00,0x00,0x00,0x00,0x00,0xff,0xff,0x83,0x0f,0xf0,0xc3,0x03,0x50,0x64,0xee,
 0x49,0xd1,0x8b,0xce,0x00,0x80,0x0f,0xe0,0x83,0x1f,0xfc,0xc1,0x03,0xd0,0x94,
 0x24,0x4a,0x5b,0x98,0x24,0x01,0x80,0x07,0xe0,0x83,0xff,0xff,0xe1,0x03,0x50,
 0x35,0x24,0x4a,0xd5,0xab,0x64,0x00,0xc0,0x07,0xe0,0x03,0xff,0x7f,0xe0,0x03,
 0x50,0xc6,0xe4,0x49,0x51,0xc8,0x84,0x01,0xe0,0x07,0xe0,0x03,0xfe,0x3f,0xe0,
 0x03,0x50,0x94,0x24,0x49,0x51,0x88,0x24,0x01,0xe0,0x03,0xc0,0x03,0xf0,0x07,
 0xe0,0x01,0x50,0x64,0x24,0x72,0xd1,0x8b,0xc4,0x00,0x00,0x00,0x00,0x00,0x00,
 0x00,0x00,0x00,0x00,0x00,0x00,0x00,0x00,0x00,0x00,0x00,0x00,0x00,0x00,0x00,
 0x00,0x00,0x00,0x00,0x00,0x00,0x00,0x00,0x00,0x00,0x00,0x00,0x00,0x00,0x00,
 0x00,0x00,0x00,0x00,0x00,0x00,0x00,0x00,0x00,0x00,0x00,0x00,0x00,0x00,0x00,
 0x00,0x00,0x00,0x00,0x00,0x00,0x00,0x00,0x00,0x00,0x00,0x00,0x00,0x00,0x00,
 0x00,0x00,0x00,0x00,0x00,0x00,0x00,0x00,0x00,0x00,0x00,0x00,0x00,0x00,0x00,
 0x00,0x00,0x00,0x00,0x00,0x00,0x00,0x00,0x00,0x00,0x00,0x00,0x00,0x00,0x00,
 0x00,0x00,0x00,0x80,0x8f,0x27,0x88,0x3e,0xbf,0xcf,0x0c,0xf0,0x78,0x3c,0x00,
 0x00,0x00,0x00,0x00,0x80,0x90,0x24,0x88,0x42,0x81,0x50,0x0b,0x08,0x49,0x24,
 0x00,0x00,0x00,0x00,0x00,0x80,0x50,0x28,0x50,0x42,0x81,0x50,0x0b,0x00,0xa5,
 0x52,0x00,0x00,0x00,0x00,0x00,0x80,0x50,0x28,0x50,0x42,0xbf,0x58,0x08,0x80,
 0x94,0x4a,0x00,0x00,0x00,0x00,0x00,0x80,0x4f,0x28,0x20,0x3e,0x81,0x4f,0x08,
 0x40,0x94,0x4a,0x00,0x00,0x00,0x00,0x00,0x80,0x40,0x28,0x20,0x02,0x81,0x58,
 0x08,0x20,0x8c,0x46,0x00,0x00,0x00,0x00,0x00,0x80,0x80,0x24,0x20,0x02,0x81,
 0x50,0x08,0x10,0x48,0x24,0x00,0x00,0x00,0x00,0x00,0x80,0x80,0xe7,0x27,0x02,
 0xbf,0x50,0x08,0xf8,0x79,0x3c,0x00,0x00,0x00,0x00,0x00,0x00,0x00,0x00,0x00,
 0x00,0x00,0x00,0x00,0x00,0x00,0x00,0x00,0x00,0x00,0x00,0x00,0x00,0x00,0x00,
 0x00,0x00,0x00,0x00,0x00,0x00,0x00,0x00,0x00,0x00,0x00,0x00,0x00,0x00,0x00,
 0x00,0x00,0x00,0x00,0x00,0x00,0x00,0x00,0x00,0x00,0x00,0x00,0x00,0x00,0x00,
 0x00,0x00,0x00,0x00,0x00,0x00,0x00,0x00,0x00,0x00,0x00,0x00,0x00,0xe0,0xff,
 0xff,0xff,0xff,0xff,0xff,0xff,0xff,0xff,0xff,0xff,0xff,0xff,0xff,0x01,0x00,
 0x00,0x00,0x00,0x00,0x00,0x00,0x00,0x00,0x00,0x00,0x00,0x00,0x00,0x00,0x00,
 0xe0,0xff,0xff,0xff,0xff,0xff,0xff,0xff,0xff,0xff,0xff,0xff,0xff,0xff,0xff,
 0x01,0x00,0x00,0x00,0x00,0x00,0x00,0x00,0x00,0x00,0x00,0x00,0x00,0x00,0x00,
 0x00,0x00,0x00,0x00,0x00,0x00,0x00,0x00,0x00,0x00,0x00,0x00,0x00,0x00,0x00,
 0x00,0x00,0x00 };
