#define _width 16
#define _height 16
static char _bits[] = {
 0x00,0x00,0x00,0x00,0xff,0xff,0x00,0x00,0x82,0x7f,0x7d,0xe0,0xfd,0xdf,0x05,
 0x80,0xf5,0xbf,0x95,0xbb,0x59,0xdd,0xf9,0xdf,0x03,0xe0,0xfe,0x7f,0x00,0x00,
 0xff,0xff };
