#define _width 16
#define _height 16
static char _bits[] = {
 0x00,0x00,0x00,0x00,0xff,0xff,0x00,0x00,0x34,0x1d,0x30,0x25,0x54,0x25,0x54,
 0x25,0x54,0x1d,0x94,0x05,0x14,0x05,0x00,0x00,0x00,0x00,0x00,0x00,0x00,0x00,
 0xff,0xff };
