#define _width 16
#define _height 16
static char _bits[] = {
 0x00,0x00,0x00,0x00,0xff,0xff,0x00,0x00,0xa0,0x45,0xbd,0xb5,0x7d,0xb5,0x71,
 0xb6,0xbd,0xc6,0xbd,0xf5,0xa1,0xf5,0xff,0xff,0xff,0xff,0xfe,0x7f,0x00,0x00,
 0xff,0xff };
