#define _width 16
#define _height 16
static char _bits[] = {
 0x00,0x00,0x00,0x00,0xff,0xff,0x00,0x00,0x7c,0x00,0x82,0x1f,0x02,0x20,0xfa,
 0x7f,0x0a,0x40,0x6a,0x44,0xa6,0x22,0x06,0x20,0xfc,0x1f,0x00,0x00,0x00,0x00,
 0xff,0xff };
