#define _width 16
#define _height 16
static char _bits[] = {
 0x00,0x00,0x00,0x00,0xff,0xff,0x00,0x00,0xd2,0x4d,0x52,0x4c,0x52,0x54,0xd2,
 0x54,0x52,0x54,0x4c,0x64,0xcc,0x45,0x00,0x00,0x00,0x00,0x00,0x00,0x00,0x00,
 0xff,0xff };
