#define _width 16
#define _height 16
static char _bits[] = {
 0x00,0x00,0x00,0x00,0xff,0xff,0x00,0x00,0x92,0x31,0x52,0x4a,0x52,0x0a,0xd2,
 0x0b,0x52,0x0a,0x4c,0x4a,0x4c,0x32,0x00,0x00,0xfe,0x7f,0xfc,0x3f,0x00,0x00,
 0xff,0xff };
