#define _width 16
#define _height 16
static char _bits[] = {
 0x00,0x00,0x00,0x00,0xff,0xff,0x00,0x00,0xf0,0x3f,0x48,0x2a,0x44,0x2a,0x04,
 0x20,0x64,0x27,0x14,0x2a,0x64,0x2a,0x84,0x26,0x64,0x20,0xfc,0x3f,0x00,0x00,
 0xff,0xff };
