#define _width 16
#define _height 16
static char _bits[] = {
 0x00,0x00,0x00,0x00,0xff,0xff,0x00,0x00,0xe0,0x03,0xf8,0x0f,0xf8,0x0f,0xf8,
 0x0f,0xf8,0x0f,0xf0,0x07,0xe0,0x03,0xc0,0x03,0x80,0x03,0x80,0x3f,0x00,0x00,
 0xff,0xff };
