#define _width 16
#define _height 16
static char _bits[] = {
 0x00,0x00,0x00,0x00,0xff,0xff,0x00,0x00,0xe0,0x03,0x20,0x02,0x38,0x0e,0x08,
 0x08,0x08,0x08,0x08,0x08,0x08,0x08,0x10,0x04,0xe0,0x03,0x80,0x3f,0x00,0x00,
 0xff,0xff };
