#define _width 16
#define _height 16
static char _bits[] = {
 0x00,0x00,0x00,0x00,0xff,0xff,0x00,0x00,0xb0,0x35,0xb8,0x35,0xbc,0x35,0xfc,
 0x3f,0x9c,0x38,0xec,0x35,0x9c,0x35,0x7c,0x39,0x9c,0x3f,0xf8,0x1f,0x00,0x00,
 0xff,0xff };
