#define _width 16
#define _height 16
static char _bits[] = {
 0x00,0x00,0x00,0x00,0xff,0xff,0x00,0x00,0xca,0x62,0xcf,0xda,0xab,0xda,0xab,
 0xda,0xab,0xe2,0x6b,0xfa,0xeb,0xfa,0xff,0xff,0xff,0xff,0xfe,0x7f,0x00,0x00,
 0xff,0xff };
