#define _width 16
#define _height 16
static char _bits[] = {
 0x00,0x00,0x00,0x00,0xff,0xff,0x00,0x00,0x5e,0x3a,0x42,0x4a,0x82,0x4a,0x8e,
 0x49,0x42,0x39,0x42,0x0a,0x5e,0x0a,0x00,0x00,0x00,0x00,0x00,0x00,0x00,0x00,
 0xff,0xff };
