#define _width 16
#define _height 16
static char _bits[] = {
 0x00,0x00,0x00,0x00,0xff,0xff,0x00,0x00,0x2c,0x32,0xad,0xb3,0xad,0xab,0x2d,
 0xab,0xad,0xab,0xb3,0x9b,0x33,0xba,0xff,0xff,0xff,0xff,0xfe,0x7f,0x00,0x00,
 0xff,0xff };
