#define _width 16
#define _height 16
static char _bits[] = {
 0x00,0x00,0x00,0x00,0xff,0xff,0x00,0x00,0x6c,0x4e,0xad,0xb5,0xad,0xf5,0x2d,
 0xf4,0xad,0xf5,0xb3,0xb5,0xb3,0xcd,0xff,0xff,0xff,0xff,0xfe,0x7f,0x00,0x00,
 0xff,0xff };
