#define _width 16
#define _height 16
static char _bits[] = {
 0x00,0x00,0x00,0x00,0xff,0xff,0x00,0x00,0x9e,0x7f,0x97,0xfe,0x0f,0xff,0x9f,
 0xff,0x01,0x80,0xff,0xf3,0xff,0xe1,0xff,0xd2,0xff,0xf3,0xfe,0x7f,0x00,0x00,
 0xff,0xff };
