#define _width 16
#define _height 16
static char _bits[] = {
 0x00,0x00,0x00,0x00,0xff,0xff,0x00,0x00,0x60,0x00,0x68,0x01,0xf0,0x00,0x60,
 0x00,0xfe,0x7f,0x00,0x0c,0x00,0x1e,0x00,0x2d,0x00,0x0c,0x00,0x00,0x00,0x00,
 0xff,0xff };
