#define _width 128
#define _height 24
static char _bits[] = {
 0x0c,0x00,0x00,0x00,0x00,0x00,0x00,0x00,0x00,0x00,0x00,0x00,0x00,0x00,0x00,
 0x00,0x12,0x00,0x00,0x00,0x00,0x00,0x00,0x00,0x00,0x00,0x00,0x00,0x00,0x00,
 0x00,0x40,0x21,0x00,0x1f,0x00,0xf8,0xff,0xff,0x07,0x80,0x0f,0xf8,0x1f,0x00,
 0x1f,0x00,0x40,0x21,0x80,0x20,0x00,0x8c,0xff,0x7f,0x0c,0x40,0x10,0x18,0x18,
 0x80,0x20,0x00,0x40,0x40,0x40,0x40,0x00,0x0c,0x02,0x10,0x0c,0x20,0x20,0x10,
 0x08,0x40,0x40,0x00,0x20,0x80,0x60,0xc0,0x00,0x08,0x02,0x10,0x04,0x30,0x60,
 0x10,0x08,0x60,0xc0,0x00,0x10,0x80,0x7f,0xc0,0xff,0x0f,0x02,0x10,0xfc,0x3f,
 0xe0,0x1f,0xf8,0x7f,0xc0,0xff,0x0f,0x00,0x70,0xc0,0x01,0x00,0x02,0x10,0x04,
 0x38,0xe0,0x00,0x00,0x70,0xc0,0x01,0x00,0x00,0x70,0xc0,0x01,0x00,0x02,0x10,
 0x04,0x38,0xe0,0x00,0x00,0x70,0xc0,0x01,0x00,0x00,0x70,0xc0,0x01,0x00,0x02,
 0x10,0x04,0x38,0xe0,0x00,0x00,0x70,0xc0,0x01,0x00,0x00,0x70,0xc0,0x01,0x00,
 0x02,0x10,0x04,0x38,0xe0,0x00,0x00,0x70,0xc0,0x01,0x00,0x80,0x7f,0xc0,0xff,
 0x0f,0x02,0x10,0xfc,0x3f,0xe0,0x1f,0xf8,0x7f,0xc0,0xff,0x0f,0x80,0x60,0xc0,
 0x00,0x08,0x02,0x10,0x04,0x30,0x60,0x10,0x08,0x60,0xc0,0x00,0x10,0x80,0x40,
 0x40,0x00,0x08,0x02,0x10,0x04,0x20,0x20,0x10,0x08,0x40,0x40,0x00,0x20,0x80,
 0x80,0x20,0x00,0x08,0x02,0x10,0x04,0x40,0x10,0x10,0x08,0x80,0x20,0x00,0x40,
 0x80,0x00,0x1f,0xf8,0x09,0x04,0x08,0x04,0x80,0x0f,0x10,0x08,0x00,0x1f,0x00,
 0x40,0x80,0x00,0x00,0x08,0x0a,0xf8,0x07,0x04,0x01,0x00,0x10,0x08,0x00,0x00,
 0x00,0x40,0x80,0x00,0x00,0x0f,0x0e,0x00,0x00,0x84,0x02,0x00,0x10,0x08,0x00,
 0x00,0x00,0x40,0x80,0x00,0x80,0x0f,0x0e,0x00,0x00,0x84,0x03,0x00,0x10,0x08,
 0x00,0x00,0x00,0x00,0x80,0x00,0x80,0x09,0x0a,0x00,0x00,0x44,0x05,0x00,0x10,
 0x08,0x00,0x00,0x00,0x00,0x80,0x00,0x80,0xf9,0x09,0x00,0x00,0x24,0x08,0x00,
 0x20,0x04,0x00,0x00,0x00,0x00,0x80,0x00,0x80,0x01,0x30,0x00,0x00,0x23,0x08,
 0x00,0xc0,0x03,0x00,0x00,0x00,0x00,0xff,0x00,0x80,0x01,0xc0,0x03,0xf0,0x20,
 0x08,0x00,0x00,0x00,0x00,0x00,0x00,0x00,0x00,0x00,0x80,0x01,0x00,0xfc,0x0f,
 0x20,0x08,0x00,0x00,0x00,0x00,0x00,0x00,0x00 };
