#define _width 24
#define _height 24
static char _bits[] = {
 0x0c,0x00,0x30,0x04,0x00,0x20,0x06,0x00,0x60,0x03,0x00,0xc0,0x03,0x00,0xc0,
 0x0b,0xc8,0xcf,0x0b,0x28,0xd0,0x13,0x04,0xd8,0x13,0x04,0xc4,0x13,0x04,0xc2,
 0x23,0x82,0xc1,0x23,0xc2,0xcf,0x43,0x01,0xc8,0x43,0x01,0xd0,0x43,0x01,0xd0,
 0x83,0x20,0xc8,0x83,0xc0,0xcf,0x03,0x00,0xc0,0x06,0x00,0x60,0x04,0x00,0x20,
 0x0c,0x00,0x30,0x00,0x00,0x00,0x00,0x00,0x00,0x00,0x00,0x00 };
