#define _width 24
#define _height 24
static char _bits[] = {
 0x00,0x00,0x00,0x0c,0x00,0x30,0x04,0x00,0x20,0x06,0x00,0x60,0x03,0x00,0xc0,
 0x03,0x00,0xc0,0x13,0x10,0xc3,0x13,0x90,0xc3,0x23,0xc8,0xc2,0x23,0x48,0xc2,
 0x23,0x08,0xc2,0x43,0x04,0xc2,0x43,0x04,0xc3,0x83,0x02,0xc3,0x83,0x02,0xc3,
 0x83,0x02,0xc3,0x03,0xc1,0xcf,0x03,0xc1,0xcf,0x03,0x00,0xc0,0x06,0x00,0x60,
 0x04,0x00,0x20,0x0c,0x00,0x30,0x00,0x00,0x00,0x00,0x00,0x00 };
