#define _width 24
#define _height 24
static char _bits[] = {
 0x00,0x00,0x00,0x00,0x00,0x00,0x00,0x00,0x00,0x00,0x00,0x00,0x00,0x00,0x00,
 0x08,0xc8,0x0f,0x08,0x28,0x10,0x10,0x04,0x18,0x10,0x04,0x04,0x10,0x04,0x02,
 0x20,0x82,0x01,0x20,0xc2,0x0f,0x40,0x01,0x08,0x40,0x01,0x10,0x40,0x01,0x10,
 0x80,0x20,0x08,0x80,0xc0,0x0f,0x00,0x00,0x00,0x00,0x00,0x00,0x00,0x00,0x00,
 0x00,0x00,0x00,0x00,0x00,0x00,0x00,0x00,0x00,0x00,0x00,0x00 };
