#define _width 15
#define _height 24
static char _bits[] = {
 0x00,0x00,0xe0,0x03,0x18,0x0c,0xe4,0x13,0xfa,0x2f,0xfa,0x2f,0xfd,0x5f,0xfd,
 0x5f,0xfd,0x5f,0xfd,0x5f,0xfd,0x5f,0xfd,0x5f,0xfa,0x2f,0xfa,0x2f,0xe4,0x13,
 0x18,0x0c,0xe0,0x03,0x00,0x00,0x30,0x09,0x48,0x0b,0x48,0x0d,0x48,0x09,0x30,
 0x09,0x00,0x00 };
