#define _width 24
#define _height 24
static char _bits[] = {
 0x00,0x00,0x00,0x00,0x00,0x00,0x00,0x00,0x00,0x00,0x00,0x00,0x00,0x00,0x00,
 0x10,0x10,0x07,0x10,0x90,0x08,0x20,0x48,0x10,0x20,0x08,0x10,0x20,0x08,0x10,
 0x40,0x04,0x08,0x40,0x04,0x04,0x80,0x02,0x02,0x80,0x02,0x01,0x80,0x82,0x00,
 0x00,0xc1,0x1f,0x00,0xc1,0x1f,0x00,0x00,0x00,0x00,0x00,0x00,0x00,0x00,0x00,
 0x00,0x00,0x00,0x00,0x00,0x00,0x00,0x00,0x00,0x00,0x00,0x00 };
