#define _width 128
#define _height 24
static char _bits[] = {
 0x00,0x00,0x30,0x00,0xc0,0x00,0x00,0x60,0x00,0x00,0x03,0x00,0x80,0x01,0x00,
 0x0c,0x00,0x00,0x10,0x00,0x80,0x00,0x00,0x20,0x00,0x00,0x02,0x00,0x80,0x00,
 0x00,0x08,0x00,0x00,0x18,0x00,0x80,0x01,0x00,0x30,0x00,0x00,0x06,0x00,0xc0,
 0x00,0x00,0x18,0x80,0x0f,0x0c,0x00,0x00,0x03,0x1f,0x18,0x00,0x00,0x0c,0x7c,
 0x60,0x00,0x00,0x30,0x60,0x30,0x0c,0x00,0x00,0xc3,0x60,0x18,0x00,0x00,0x0c,
 0x83,0x61,0x00,0x00,0x30,0x10,0x40,0x4c,0x40,0x0c,0x23,0x80,0x98,0x80,0x38,
 0x8c,0x00,0x62,0x02,0xf2,0x33,0x28,0xa0,0x4c,0x40,0x0e,0x53,0x40,0x99,0x80,
 0x44,0x4c,0x01,0x65,0x02,0x0a,0x34,0x48,0x90,0x8c,0x20,0x0b,0x93,0x20,0x19,
 0x41,0x82,0x4c,0x82,0x64,0x04,0x01,0x36,0x84,0x08,0x8d,0x20,0x09,0x0b,0x11,
 0x1a,0x41,0x80,0x2c,0x44,0x68,0x04,0x01,0x31,0x04,0x05,0x8d,0x20,0x08,0x0b,
 0x0a,0x1a,0x41,0x80,0x2c,0x28,0x68,0x04,0x81,0x30,0x04,0x02,0x0d,0x11,0x08,
 0x0b,0x04,0x1a,0x22,0x40,0x2c,0x10,0x68,0x88,0x60,0x30,0x04,0x02,0x0d,0x11,
 0x08,0x0b,0x04,0x1a,0x22,0x20,0x2c,0x10,0x68,0x88,0xf0,0x33,0x04,0x05,0x0d,
 0x0a,0x08,0x0b,0x0a,0x1a,0x14,0x10,0x2c,0x28,0x68,0x50,0x00,0x32,0x84,0x08,
 0x0d,0x0a,0x08,0x0b,0x11,0x1a,0x14,0x08,0x2c,0x44,0x68,0x50,0x00,0x34,0x48,
 0x90,0x0c,0x0a,0x08,0x93,0x20,0x19,0x14,0x04,0x4c,0x82,0x64,0x50,0x00,0x34,
 0x28,0xa0,0x0c,0x04,0x3f,0x53,0x40,0x19,0x08,0xfe,0x4c,0x01,0x65,0x20,0x08,
 0x32,0x10,0x40,0x0c,0x04,0x3f,0x23,0x80,0x18,0x08,0xfe,0x8c,0x00,0x62,0x20,
 0xf0,0x33,0x60,0x30,0x0c,0x00,0x00,0xc3,0x60,0x18,0x00,0x00,0x0c,0x83,0x61,
 0x00,0x00,0x30,0x80,0x0f,0x18,0x00,0x80,0x01,0x1f,0x30,0x00,0x00,0x06,0x7c,
 0xc0,0x00,0x00,0x18,0x00,0x00,0x10,0x00,0x80,0x00,0x00,0x20,0x00,0x00,0x02,
 0x00,0x80,0x00,0x00,0x08,0x00,0x00,0x30,0x00,0xc0,0x00,0x00,0x60,0x00,0x00,
 0x03,0x00,0x80,0x01,0x00,0x0c,0x00,0x00,0x00,0x00,0x00,0x00,0x00,0x00,0x00,
 0x00,0x00,0x00,0x00,0x00,0x00,0x00,0x00,0x00,0x00,0x00,0x00,0x00,0x00,0x00,
 0x00,0x00,0x00,0x00,0x00,0x00,0x00,0x00,0x00,0x00,0x00,0x00,0x00,0x00,0x00,
 0x00,0x00,0x00,0x00,0x00,0x00,0x00,0x00,0x00 };
