#define _width 15
#define _height 24
static char _bits[] = {
 0x00,0x00,0xe0,0x03,0x18,0x0c,0x04,0x10,0x0a,0x28,0x12,0x24,0x21,0x42,0x41,
 0x41,0x81,0x40,0x81,0x40,0x41,0x41,0x21,0x42,0x12,0x24,0x0a,0x28,0x04,0x10,
 0x18,0x0c,0xe0,0x03,0x00,0x00,0xcc,0x1d,0x52,0x04,0xd2,0x0c,0x52,0x04,0x4c,
 0x04,0x00,0x00 };
