#define _width 32
#define _height 32
static char _bits[] = {
 0x00,0x00,0x00,0x00,0x00,0x00,0x00,0x00,0x00,0x00,0x00,0x00,0x00,0x00,0x00,
 0x00,0x1e,0x00,0x00,0x78,0x32,0x00,0x00,0x4c,0xd1,0x00,0x80,0x8b,0x11,0x03,
 0xc0,0x88,0x11,0x04,0x30,0x88,0x11,0x08,0x08,0x88,0x11,0x10,0x08,0x88,0x11,
 0x20,0x04,0x88,0x11,0x20,0x1c,0x88,0x11,0xc0,0x1f,0x88,0x11,0x40,0x3e,0x88,
 0x11,0x60,0xfe,0x88,0x11,0x70,0xfe,0x89,0x11,0xf8,0xff,0x8b,0x11,0x38,0xfc,
 0x8b,0x11,0x3c,0xfc,0x8b,0x11,0x1c,0xf8,0x8f,0x11,0x0e,0xf0,0x8f,0x11,0x07,
 0xe0,0x8f,0xd1,0x03,0xc0,0x8f,0xf1,0x00,0x80,0x8f,0x32,0x00,0x00,0x4c,0x1e,
 0x00,0x00,0x78,0x00,0x00,0x00,0x00,0x00,0x00,0x00,0x00,0x00,0x00,0x00,0x00,
 0x00,0x00,0x00,0x00,0x00,0x00,0x00,0x00 };
