#define _width 24
#define _height 16
static char _bits[] = {
 0x78,0x00,0x0f,0x68,0x80,0x0a,0x90,0x40,0x05,0x20,0xbb,0x02,0xc0,0x2e,0x01,
 0x80,0xd5,0x00,0x00,0x3e,0x00,0x00,0x22,0x00,0x00,0x22,0x00,0x00,0x3e,0x00,
 0x80,0xc1,0x00,0xc0,0x00,0x03,0x20,0x00,0x04,0x10,0x04,0x04,0x08,0x1c,0x08,
 0x0c,0x3e,0x18 };
