#define _width 128
#define _height 48
static char _bits[] = {
 0x00,0x00,0x00,0x00,0x00,0x00,0x00,0x00,0x00,0x00,0x00,0x00,0x00,0x00,0x00,
 0x00,0x00,0x00,0x00,0x00,0x00,0x00,0x00,0x00,0x00,0x00,0x00,0x00,0x00,0x00,
 0x00,0x00,0x00,0x00,0x00,0x00,0x00,0x00,0x00,0x00,0x00,0x00,0x00,0x00,0x00,
 0x00,0x00,0x00,0x80,0x80,0x80,0x80,0x80,0x80,0x80,0x80,0x80,0x80,0x80,0x80,
 0x80,0x80,0x80,0x00,0x00,0x00,0x00,0x00,0x00,0x00,0x00,0x00,0x00,0x00,0x00,
 0x00,0x00,0x00,0x00,0x00,0x00,0x00,0x00,0x00,0x00,0x00,0x00,0x00,0x00,0x00,
 0x00,0x00,0x00,0x00,0x00,0x80,0x00,0x00,0x00,0x00,0x00,0x00,0x00,0x00,0x00,
 0x00,0x00,0x00,0x00,0x00,0x00,0x00,0x40,0x49,0x49,0x49,0x49,0x09,0xff,0xff,
 0x7f,0x48,0x49,0x49,0x49,0x49,0x49,0x89,0x00,0x00,0x00,0x00,0x00,0x00,0x55,
 0x55,0x55,0x00,0x00,0x00,0x00,0x00,0x00,0x00,0x00,0x00,0x00,0x00,0x00,0x00,
 0xab,0xaa,0x6a,0x00,0x00,0x00,0x00,0x00,0x00,0x00,0x80,0x00,0x00,0x00,0x00,
 0x00,0x55,0x55,0x55,0x00,0x00,0x00,0x00,0x00,0x00,0x80,0x00,0x80,0x80,0x80,
 0x80,0x00,0xff,0xff,0x7f,0x80,0x80,0x80,0x80,0x80,0x80,0x00,0x00,0x00,0x00,
 0x00,0x00,0x00,0x02,0x00,0x20,0x00,0x00,0x00,0x00,0x00,0x00,0x00,0x80,0x00,
 0x00,0x00,0x00,0x00,0x04,0x00,0x10,0x00,0x00,0x00,0x00,0x00,0x00,0x00,0x00,
 0x00,0x80,0x80,0x80,0x00,0x04,0x00,0x1c,0x80,0x80,0x80,0x80,0x80,0x80,0x80,
 0x24,0x49,0x09,0x24,0x24,0x24,0xfc,0x80,0x1b,0x08,0x24,0x24,0x24,0x24,0x24,
 0x24,0x00,0x00,0x80,0x00,0x00,0x00,0x28,0x41,0x09,0x80,0x00,0x00,0x00,0x00,
 0x00,0x00,0x00,0x00,0x00,0x00,0x00,0x00,0x90,0xa2,0x04,0x00,0x00,0x00,0x00,
 0x00,0x00,0x00,0x80,0x00,0x00,0x80,0x80,0x00,0x20,0x3b,0x05,0x00,0x80,0x80,
 0x80,0x80,0x80,0x00,0x00,0x80,0x80,0x00,0x00,0x00,0xc0,0x64,0x03,0x80,0x00,
 0x00,0x00,0x00,0x00,0x00,0x00,0x00,0x00,0x00,0x00,0x00,0x80,0xc9,0x00,0x00,
 0x00,0x00,0x00,0x00,0x00,0x80,0x00,0x00,0x00,0x00,0x80,0x00,0x00,0x3e,0x00,
 0x00,0x00,0x80,0x00,0x80,0x00,0x00,0x80,0x80,0x80,0x80,0x00,0x00,0x00,0x22,
 0x00,0x80,0x80,0x00,0x80,0x00,0x80,0x00,0x08,0x12,0x24,0x24,0x24,0x04,0x00,
 0x22,0x00,0x24,0x08,0x12,0x12,0x12,0x12,0x92,0x80,0x00,0x00,0x00,0x00,0x00,
 0x00,0x3e,0x00,0x00,0x80,0x80,0x80,0x80,0x80,0x00,0x00,0x80,0x00,0x00,0x80,
 0x00,0x80,0xc1,0x00,0x00,0x00,0x00,0x00,0x00,0x00,0x00,0x00,0x00,0x80,0x80,
 0x00,0x00,0x40,0x00,0x01,0x80,0x00,0x00,0x00,0x00,0x00,0x00,0x80,0x00,0x00,
 0x00,0x00,0x00,0x20,0x00,0x02,0x00,0x80,0x00,0x00,0x00,0x00,0x00,0x00,0x00,
 0x00,0x00,0x00,0x00,0x10,0x08,0x04,0x00,0x00,0x80,0x80,0x80,0x80,0x80,0x00,
 0x80,0x80,0x00,0x80,0x00,0x08,0x14,0x08,0x00,0x00,0x00,0x00,0x00,0x00,0x00,
 0x80,0x00,0x00,0x80,0x00,0x00,0x08,0x2b,0x08,0x80,0x80,0x00,0x00,0x00,0x00,
 0x00,0x24,0x88,0x88,0x08,0x92,0x24,0x04,0x35,0x10,0x04,0x12,0x48,0x22,0x91,
 0x88,0x48,0x00,0x00,0x00,0x80,0x00,0x00,0xc4,0xcc,0x11,0x80,0x80,0x00,0x00,
 0x00,0x00,0x00,0x00,0x00,0x00,0x00,0x00,0x00,0x22,0x52,0x26,0x00,0x00,0x00,
 0x00,0x00,0x80,0x00,0x80,0x80,0x80,0x00,0x80,0x00,0xff,0xff,0x7f,0x00,0x00,
 0x80,0x80,0x80,0x00,0x00,0x00,0x00,0x00,0x80,0x00,0x00,0xab,0xaa,0x6a,0x80,
 0x00,0x00,0x00,0x00,0x00,0x00,0x00,0x00,0x00,0x00,0x00,0x00,0x55,0x55,0x55,
 0x00,0x80,0x00,0x00,0x00,0x80,0x80,0x00,0x80,0x80,0x00,0x00,0x00,0xab,0xaa,
 0x6a,0x00,0x00,0x00,0x80,0x80,0x00,0x00,0x80,0x00,0x00,0x80,0x80,0x00,0xff,
 0xff,0x7f,0x80,0x00,0x80,0x00,0x00,0x00,0x00,0x08,0x92,0x48,0x24,0x08,0x24,
 0x00,0x00,0x00,0x24,0x48,0x12,0x24,0x24,0xa4,0x24,0x80,0x00,0x00,0x00,0x80,
 0x00,0x00,0x00,0x00,0x00,0x00,0x80,0x00,0x00,0x00,0x00,0x00,0x00,0x00,0x00,
 0x00,0x00,0x80,0x80,0x80,0x00,0x00,0x00,0x80,0x80,0x00,0x00,0x00,0x80,0x80,
 0x80,0x00,0x80,0x00,0x00,0x00,0x80,0x80,0x00,0x00,0x00,0x00,0x00,0x80,0x00,
 0x00,0x00,0x80,0x00,0x00,0x00,0x00,0x00,0x00,0x00,0x00,0x00,0x80,0x80,0x00,
 0x00,0x00,0x00,0x00,0x00,0x80,0x80,0x80,0x00,0x00,0x80,0x00,0x00,0x00,0x00,
 0x00,0x00,0x80,0x80,0x00,0x00,0x00,0x00,0x00,0x00,0x80,0x00,0x80,0x80,0x00,
 0x00,0x80,0x80,0x00,0x00,0x80,0x80,0x00,0x00,0x00,0x80,0x00,0x00,0x00,0x00,
 0x80,0x00,0x00,0x00,0x00,0x00,0x00,0x00,0x80,0x80,0x00,0x00,0x00,0x80,0x00,
 0x00,0x00,0x80 };
