#define _width 24
#define _height 16
static char _bits[] = {
 0x08,0x00,0x08,0x08,0x00,0x08,0x10,0x00,0x04,0xe0,0x63,0x02,0xc0,0x94,0x01,
 0x80,0xdd,0x00,0x00,0x3e,0x00,0x00,0x22,0x00,0x00,0x22,0x00,0x00,0x3e,0x00,
 0x80,0xc9,0x00,0xc0,0x36,0x03,0x20,0x5f,0x04,0xd0,0xff,0x04,0xc8,0xfd,0x09,
 0x4c,0x3f,0x11 };
